<?xml version="1.0" encoding="UTF-8" standalone="no"?>
<svg
   id="svg"
   version="1.1"
   width="50"
   height="90"
   viewBox="0, 0, 400,400"
   sodipodi:docname="image2vector (5).svg"
   xmlns:inkscape="http://www.inkscape.org/namespaces/inkscape"
   xmlns:sodipodi="http://sodipodi.sourceforge.net/DTD/sodipodi-0.dtd"
   xmlns="http://www.w3.org/2000/svg"
   xmlns:svg="http://www.w3.org/2000/svg">
  <defs
     id="defs11" />
  <sodipodi:namedview
     id="namedview9"
     pagecolor="#ffffff"
     bordercolor="#000000"
     borderopacity="0.25"
     inkscape:showpageshadow="2"
     inkscape:pageopacity="0.0"
     inkscape:pagecheckerboard="0"
     inkscape:deskcolor="#d1d1d1" />
  <g
     id="svgg">
    <path
       id="path0"
       d="M195.400 102.917 C 172.351 104.170,152.860 111.192,142.207 122.083 C 140.864 123.455,140.896 123.456,143.553 122.125 C 171.991 107.889,206.416 105.554,241.100 115.508 C 250.231 118.129,255.695 120.260,257.409 121.870 C 258.191 122.605,258.063 122.444,257.091 121.473 C 245.120 109.500,218.974 101.636,195.400 102.917 M190.200 114.923 C 171.145 116.163,158.587 118.578,148.800 122.883 C 145.619 124.282,145.087 124.623,145.168 125.209 C 145.301 126.160,155.425 177.092,155.496 177.163 C 155.536 177.202,157.263 176.870,159.334 176.425 C 188.819 170.084,212.503 170.114,241.266 176.528 C 243.008 176.916,244.465 177.202,244.504 177.163 C 244.544 177.123,246.909 165.348,249.760 150.995 L 254.944 124.900 254.522 124.555 C 253.802 123.965,248.846 121.864,245.700 120.815 C 237.498 118.079,227.571 116.292,214.400 115.182 C 212.020 114.981,192.515 114.773,190.200 114.923 M265.751 127.800 C 265.216 130.322,256.782 199.565,256.604 202.900 C 256.132 211.740,255.629 233.200,255.894 233.200 C 256.184 233.200,260.099 229.718,262.950 226.923 L 265.800 224.129 265.838 226.615 C 265.860 227.982,265.937 225.725,266.010 221.600 C 266.084 217.475,266.157 201.756,266.172 186.669 L 266.200 159.238 270.050 158.317 C 272.168 157.810,274.063 157.396,274.262 157.398 C 275.627 157.406,270.006 152.127,267.050 150.624 C 266.582 150.386,266.186 150.171,266.168 150.146 C 266.150 150.121,266.083 144.925,266.018 138.600 C 265.953 132.275,265.833 127.415,265.751 127.800 M134.000 134.468 C 134.000 138.135,133.940 143.180,133.868 145.680 L 133.735 150.225 132.918 150.639 C 130.460 151.883,125.936 155.925,125.859 156.945 C 125.833 157.286,126.261 157.433,129.465 158.190 C 131.464 158.662,133.256 159.130,133.446 159.229 C 133.772 159.399,133.794 161.146,133.819 188.755 C 133.841 213.187,134.019 232.326,134.164 225.913 L 134.200 224.326 136.050 226.117 C 138.165 228.164,143.707 233.062,144.041 233.177 C 144.379 233.294,143.945 212.447,143.405 202.600 C 143.193 198.738,134.417 127.800,134.151 127.800 C 134.068 127.800,134.000 130.800,134.000 134.468 M199.650 179.938 C 199.843 179.988,200.158 179.988,200.350 179.938 C 200.543 179.888,200.385 179.846,200.000 179.846 C 199.615 179.846,199.458 179.888,199.650 179.938 M193.450 180.138 C 193.643 180.188,193.958 180.188,194.150 180.138 C 194.343 180.088,194.185 180.046,193.800 180.046 C 193.415 180.046,193.258 180.088,193.450 180.138 M205.952 180.141 C 206.201 180.189,206.561 180.187,206.752 180.137 C 206.944 180.087,206.740 180.048,206.300 180.050 C 205.860 180.053,205.704 180.094,205.952 180.141 M134.268 241.934 C 134.642 269.782,136.019 298.295,137.404 306.900 C 137.510 307.560,137.598 308.178,137.598 308.272 C 137.601 308.562,139.051 308.199,139.931 307.688 C 141.952 306.514,143.386 303.513,144.087 298.988 C 144.375 297.125,144.404 293.803,144.355 268.104 L 144.300 239.308 139.217 235.638 L 134.134 231.968 134.268 241.934 M260.600 235.774 L 255.700 239.331 255.641 267.815 C 255.572 300.776,255.582 300.971,257.654 304.877 C 258.986 307.389,262.112 309.397,262.462 307.967 C 262.879 306.268,263.856 295.048,264.288 287.000 C 264.457 283.865,264.643 280.400,264.702 279.300 C 265.339 267.402,266.085 232.191,265.700 232.209 C 265.590 232.214,263.295 233.818,260.600 235.774 M157.509 333.250 C 157.274 334.646,157.003 336.512,157.002 336.739 C 157.000 337.049,161.164 340.180,163.600 341.700 C 179.509 351.627,202.539 354.923,229.193 351.086 C 234.986 350.252,243.267 348.509,243.859 347.999 C 243.991 347.885,242.847 335.701,242.484 333.366 L 242.370 332.632 241.252 333.017 C 232.057 336.180,206.305 338.430,190.700 337.434 C 175.798 336.482,164.611 334.940,159.161 333.087 C 158.374 332.819,157.705 332.600,157.674 332.600 C 157.643 332.600,157.569 332.893,157.509 333.250 M154.623 352.119 C 154.601 352.524,154.977 352.975,155.600 353.292 C 155.765 353.375,155.659 353.232,155.364 352.972 C 155.069 352.712,154.787 352.320,154.737 352.100 C 154.650 351.717,154.645 351.717,154.623 352.119 M175.050 357.338 C 175.243 357.388,175.558 357.388,175.750 357.338 C 175.942 357.288,175.785 357.246,175.400 357.246 C 175.015 357.246,174.858 357.288,175.050 357.338 M224.250 357.338 C 224.443 357.388,224.757 357.388,224.950 357.338 C 225.143 357.288,224.985 357.246,224.600 357.246 C 224.215 357.246,224.058 357.288,224.250 357.338 M177.450 357.538 C 177.643 357.588,177.958 357.588,178.150 357.538 C 178.343 357.488,178.185 357.446,177.800 357.446 C 177.415 357.446,177.258 357.488,177.450 357.538 M221.850 357.538 C 222.043 357.588,222.357 357.588,222.550 357.538 C 222.743 357.488,222.585 357.446,222.200 357.446 C 221.815 357.446,221.657 357.488,221.850 357.538 M180.150 357.741 C 180.398 357.789,180.803 357.789,181.050 357.741 C 181.298 357.693,181.095 357.654,180.600 357.654 C 180.105 357.654,179.903 357.693,180.150 357.741 M218.950 357.741 C 219.197 357.789,219.603 357.789,219.850 357.741 C 220.097 357.693,219.895 357.654,219.400 357.654 C 218.905 357.654,218.703 357.693,218.950 357.741 M183.554 357.945 C 183.913 357.989,184.453 357.989,184.754 357.943 C 185.054 357.897,184.760 357.861,184.100 357.862 C 183.440 357.863,183.194 357.900,183.554 357.945 M215.354 357.945 C 215.713 357.989,216.253 357.989,216.554 357.943 C 216.854 357.897,216.560 357.861,215.900 357.862 C 215.240 357.863,214.994 357.900,215.354 357.945 M187.955 358.147 C 188.426 358.189,189.146 358.188,189.555 358.145 C 189.965 358.102,189.580 358.068,188.700 358.069 C 187.820 358.069,187.485 358.104,187.955 358.147 M210.555 358.147 C 211.026 358.189,211.746 358.188,212.155 358.145 C 212.565 358.102,212.180 358.068,211.300 358.069 C 210.420 358.069,210.085 358.104,210.555 358.147 M194.450 358.346 C 194.863 358.389,195.538 358.389,195.950 358.346 C 196.363 358.303,196.025 358.267,195.200 358.267 C 194.375 358.267,194.038 358.303,194.450 358.346 M198.550 358.349 C 199.347 358.386,200.653 358.386,201.450 358.349 C 202.248 358.311,201.595 358.279,200.000 358.279 C 198.405 358.279,197.753 358.311,198.550 358.349 M204.155 358.347 C 204.626 358.389,205.346 358.388,205.755 358.345 C 206.165 358.302,205.780 358.268,204.900 358.269 C 204.020 358.269,203.685 358.304,204.155 358.347 "
       stroke="none"
       fill="#343435"
       fill-rule="evenodd" />
    <path
       id="path1"
       d="M192.900 109.517 C 192.350 109.557,190.505 109.688,188.800 109.808 C 173.109 110.911,156.453 115.496,142.985 122.419 L 141.270 123.300 147.008 154.356 C 150.164 171.437,152.780 185.445,152.823 185.486 C 152.865 185.527,154.025 185.299,155.400 184.979 C 183.012 178.556,214.880 178.431,243.000 184.635 C 245.035 185.084,246.825 185.463,246.978 185.476 C 247.192 185.494,248.578 178.346,253.006 154.400 L 258.755 123.300 257.428 121.969 C 254.034 118.567,233.829 112.780,218.100 110.705 C 210.678 109.726,198.134 109.135,192.900 109.517 M214.400 115.182 C 227.571 116.292,237.498 118.079,245.700 120.815 C 248.846 121.864,253.802 123.965,254.522 124.555 L 254.944 124.900 249.760 150.995 C 246.909 165.348,244.544 177.123,244.504 177.163 C 244.465 177.202,243.008 176.916,241.266 176.528 C 217.421 171.211,197.216 170.327,174.800 173.621 C 169.838 174.350,164.392 175.337,159.334 176.425 C 157.263 176.870,155.536 177.202,155.496 177.163 C 155.425 177.092,145.301 126.160,145.168 125.209 C 145.087 124.623,145.619 124.282,148.800 122.883 C 158.587 118.578,171.145 116.163,190.200 114.923 C 192.515 114.773,212.020 114.981,214.400 115.182 M262.475 227.358 C 260.701 229.086,258.479 231.130,257.537 231.900 L 255.824 233.300 255.812 236.264 L 255.800 239.227 257.158 238.264 C 257.904 237.734,260.150 236.130,262.147 234.700 L 265.779 232.100 265.790 228.150 C 265.795 225.978,265.778 224.204,265.750 224.208 C 265.723 224.213,264.249 225.631,262.475 227.358 M134.246 228.205 L 134.300 232.092 139.200 235.625 L 144.100 239.158 144.155 236.270 L 144.211 233.383 143.560 232.842 C 141.753 231.339,137.688 227.697,136.046 226.110 L 134.191 224.318 134.246 228.205 M156.908 337.635 C 156.547 339.713,154.800 351.702,154.800 352.099 C 154.800 352.735,155.617 353.288,157.649 354.030 C 173.682 359.881,229.507 359.598,243.513 353.595 L 244.447 353.194 244.304 351.347 C 244.226 350.331,244.103 349.172,244.031 348.771 L 243.900 348.042 242.700 348.423 C 240.915 348.989,233.193 350.513,229.200 351.086 C 198.670 355.471,173.701 350.639,157.262 337.166 C 157.089 337.024,156.992 337.152,156.908 337.635 "
       stroke="none"
       fill="#000000"
       fill-rule="evenodd" />
    <path
       id="path2"
       d="M162.400 47.852 C 154.399 52.283,146.597 60.288,141.101 69.704 L 139.678 72.144 139.430 74.622 C 139.294 75.985,139.132 77.392,139.069 77.749 L 138.956 78.398 139.828 78.092 C 145.508 76.102,151.341 71.439,154.833 66.100 C 158.011 61.239,162.408 52.625,164.523 47.113 C 164.709 46.628,164.442 46.721,162.400 47.852 M235.400 46.909 C 235.400 48.014,242.025 61.233,244.567 65.200 C 248.441 71.244,254.285 76.088,260.094 78.067 L 261.044 78.391 260.927 77.545 C 260.863 77.080,260.707 75.710,260.582 74.500 C 260.087 69.714,252.520 59.250,245.000 52.953 C 241.730 50.215,235.400 46.229,235.400 46.909 M152.841 56.150 C 152.191 57.710,150.477 59.800,149.848 59.800 C 149.516 59.800,150.487 58.391,151.870 56.868 C 152.913 55.720,153.068 55.605,152.841 56.150 M249.611 58.639 C 250.059 59.278,250.328 59.800,250.208 59.800 C 249.568 59.800,247.200 56.915,247.200 56.134 C 247.200 55.790,248.722 57.371,249.611 58.639 M253.300 68.765 C 255.240 69.713,256.400 70.959,256.400 72.092 C 256.400 73.192,250.072 69.452,249.402 67.956 C 248.802 66.615,249.055 66.481,250.573 67.335 C 251.303 67.745,252.530 68.388,253.300 68.765 M150.848 66.915 C 151.667 67.734,149.486 69.655,145.429 71.689 C 143.544 72.634,143.219 72.543,143.873 71.254 C 144.487 70.044,144.868 69.707,146.652 68.795 C 147.448 68.388,148.595 67.774,149.200 67.431 C 150.304 66.805,150.635 66.701,150.848 66.915 "
       stroke="none"
       fill="#c5c4bf"
       fill-rule="evenodd" />
    <path
       id="path3"
       d="M195.678 39.390 C 195.628 39.439,194.533 39.503,193.244 39.533 C 191.955 39.562,190.450 39.637,189.900 39.698 C 189.350 39.759,188.270 39.841,187.500 39.881 C 186.730 39.920,186.100 39.974,186.100 40.001 C 186.100 40.079,185.199 40.192,184.061 40.258 C 183.382 40.297,182.868 40.453,182.577 40.709 C 182.332 40.924,182.197 40.988,182.277 40.850 C 182.540 40.401,182.056 40.587,181.421 41.180 C 181.080 41.499,180.800 41.724,180.800 41.680 C 180.800 41.636,180.445 41.965,180.012 42.411 C 179.020 43.434,178.466 44.776,178.788 45.378 C 178.912 45.610,178.959 45.800,178.893 45.800 C 178.826 45.800,178.915 45.943,179.089 46.118 C 179.413 46.442,180.400 46.659,180.400 46.406 C 180.400 46.329,180.535 46.267,180.700 46.267 C 180.865 46.267,181.000 46.347,181.000 46.445 C 181.000 46.543,181.109 46.556,181.242 46.474 C 181.376 46.391,181.848 46.294,182.292 46.257 C 184.282 46.093,185.148 46.007,185.800 45.908 C 186.185 45.850,187.108 45.779,187.850 45.751 C 188.593 45.723,189.200 45.639,189.200 45.564 C 189.200 45.489,189.470 45.505,189.800 45.600 C 190.130 45.695,190.400 45.707,190.400 45.627 C 190.400 45.547,190.895 45.487,191.500 45.493 C 192.105 45.499,192.600 45.438,192.600 45.357 C 192.600 45.276,192.803 45.277,193.050 45.360 C 193.442 45.491,194.303 45.521,194.600 45.415 C 194.940 45.292,200.403 45.234,200.329 45.353 C 200.248 45.484,201.188 45.518,201.700 45.402 C 202.121 45.307,205.200 45.305,205.200 45.400 C 205.200 45.455,205.672 45.473,206.250 45.439 C 206.827 45.406,207.390 45.374,207.500 45.368 C 207.610 45.363,208.240 45.431,208.900 45.519 C 209.560 45.608,210.393 45.684,210.750 45.690 C 211.107 45.695,211.400 45.745,211.400 45.800 C 211.400 45.855,211.738 45.910,212.150 45.922 C 214.421 45.987,215.948 46.116,215.875 46.237 C 215.830 46.312,216.042 46.346,216.346 46.313 C 216.651 46.279,217.108 46.330,217.361 46.425 C 217.659 46.537,217.779 46.528,217.700 46.400 C 217.620 46.271,217.745 46.265,218.058 46.384 C 218.930 46.716,220.464 46.606,220.858 46.184 C 221.055 45.973,221.161 45.800,221.094 45.800 C 221.026 45.800,221.113 45.659,221.286 45.486 C 221.654 45.117,221.701 44.600,221.367 44.600 C 221.238 44.600,221.189 44.544,221.258 44.475 C 221.483 44.250,220.618 42.834,219.937 42.315 C 219.571 42.036,219.152 41.583,219.005 41.310 C 218.859 41.037,218.671 40.856,218.586 40.909 C 218.501 40.961,218.307 40.879,218.155 40.726 C 217.753 40.325,215.769 39.987,213.200 39.883 C 212.485 39.854,211.180 39.777,210.300 39.711 C 208.505 39.577,205.210 39.408,203.100 39.340 C 202.330 39.316,201.570 39.387,201.412 39.498 C 201.200 39.646,201.162 39.635,201.271 39.455 C 201.413 39.217,195.917 39.153,195.678 39.390 M151.870 56.868 C 150.487 58.391,149.516 59.800,149.848 59.800 C 150.477 59.800,152.191 57.710,152.841 56.150 C 153.068 55.605,152.913 55.720,151.870 56.868 M247.200 56.134 C 247.200 56.915,249.568 59.800,250.208 59.800 C 250.328 59.800,250.059 59.278,249.611 58.639 C 248.722 57.371,247.200 55.790,247.200 56.134 M249.142 66.864 C 248.727 67.944,250.305 69.436,253.808 71.277 C 256.588 72.739,256.874 72.708,256.019 71.042 C 255.503 70.036,254.948 69.571,253.300 68.765 C 252.530 68.388,251.303 67.745,250.573 67.335 C 249.565 66.768,249.222 66.655,249.142 66.864 M149.200 67.431 C 148.595 67.774,147.448 68.388,146.652 68.795 C 144.868 69.707,144.487 70.044,143.873 71.254 C 143.069 72.839,144.170 72.565,148.214 70.174 C 151.244 68.382,152.197 65.731,149.200 67.431 M146.828 80.250 C 145.177 93.911,144.143 105.524,143.489 117.727 L 143.359 120.155 142.279 121.220 C 141.686 121.807,141.200 122.459,141.200 122.670 C 141.200 122.953,141.603 122.668,142.750 121.575 C 168.770 96.754,231.326 96.679,257.115 121.438 C 259.043 123.288,259.560 123.090,257.719 121.206 L 256.639 120.100 256.412 115.700 C 255.923 106.235,254.712 92.798,253.287 81.021 C 252.909 77.898,252.600 75.265,252.600 75.171 C 252.600 75.077,252.458 75.000,252.284 75.000 C 252.046 75.000,251.996 75.135,252.081 75.550 C 253.137 80.717,256.504 118.762,255.954 119.312 C 255.892 119.374,255.122 118.844,254.242 118.134 C 229.990 98.554,181.019 96.420,152.300 113.691 C 149.642 115.290,147.132 117.020,145.233 118.565 C 144.646 119.042,144.116 119.383,144.055 119.322 C 143.509 118.775,146.748 82.251,147.928 75.650 C 148.016 75.161,147.972 75.000,147.753 75.000 C 147.522 75.000,147.332 76.077,146.828 80.250 M262.249 78.133 C 262.111 78.189,262.048 78.316,262.111 78.417 C 262.173 78.518,262.123 78.600,262.000 78.600 C 261.877 78.600,261.835 78.694,261.906 78.810 C 261.990 78.946,262.117 78.952,262.268 78.827 C 262.396 78.721,262.575 78.634,262.667 78.634 C 262.758 78.633,262.886 78.581,262.950 78.517 C 263.014 78.453,262.911 78.400,262.722 78.400 C 262.532 78.400,262.432 78.310,262.500 78.200 C 262.634 77.984,262.625 77.981,262.249 78.133 M137.229 78.778 C 137.064 78.883,137.035 78.998,137.156 79.073 C 137.265 79.140,137.466 79.062,137.602 78.898 C 137.872 78.573,137.660 78.505,137.229 78.778 M262.876 78.924 C 262.656 79.144,262.374 79.291,262.251 79.250 C 261.907 79.136,261.633 79.819,261.689 80.651 C 261.716 81.063,261.662 81.400,261.569 81.400 C 261.476 81.400,261.400 81.495,261.400 81.612 C 261.400 81.728,261.468 81.782,261.550 81.731 C 261.632 81.680,261.699 82.746,261.699 84.101 C 261.698 85.455,261.758 86.526,261.833 86.480 C 261.907 86.434,261.969 86.870,261.971 87.448 C 261.973 88.505,262.141 92.100,262.187 92.100 C 262.201 92.100,262.250 92.685,262.296 93.400 C 262.341 94.115,262.431 95.150,262.495 95.700 C 262.559 96.250,262.652 97.420,262.701 98.300 C 262.893 101.736,262.999 103.351,263.114 104.600 C 263.180 105.315,263.268 106.575,263.309 107.400 C 263.351 108.225,263.431 109.440,263.487 110.100 C 263.543 110.760,263.614 111.660,263.646 112.100 C 263.678 112.540,263.771 113.004,263.853 113.132 C 263.934 113.260,263.950 113.498,263.887 113.662 C 263.824 113.826,263.865 114.017,263.978 114.086 C 264.090 114.156,264.132 114.344,264.071 114.505 C 264.008 114.668,264.100 114.851,264.279 114.920 C 264.456 114.987,264.600 115.202,264.600 115.397 C 264.600 116.075,265.144 116.303,265.859 115.925 C 266.212 115.738,266.330 115.636,266.122 115.697 C 265.803 115.792,265.783 115.761,265.994 115.507 C 266.132 115.340,266.307 115.243,266.383 115.289 C 266.458 115.336,266.635 115.191,266.775 114.966 C 266.952 114.682,266.958 114.602,266.794 114.704 C 266.664 114.784,266.703 114.628,266.880 114.359 C 267.057 114.089,267.141 113.808,267.067 113.734 C 266.994 113.660,267.033 113.600,267.155 113.600 C 267.277 113.600,267.342 113.418,267.299 113.195 C 267.252 112.953,267.304 112.841,267.426 112.916 C 267.560 112.999,267.598 112.723,267.536 112.122 C 267.483 111.615,267.505 111.200,267.585 111.200 C 267.665 111.200,267.746 110.233,267.765 109.050 C 267.783 107.868,267.883 106.606,267.986 106.246 C 268.103 105.841,268.103 105.636,267.987 105.708 C 267.883 105.773,267.800 105.460,267.800 105.000 C 267.800 104.547,267.875 104.223,267.967 104.279 C 268.058 104.336,268.133 104.255,268.133 104.100 C 268.133 103.945,268.058 103.864,267.967 103.921 C 267.875 103.977,267.797 103.906,267.793 103.762 C 267.789 103.618,267.750 102.083,267.706 100.352 C 267.662 98.620,267.570 97.113,267.501 97.002 C 267.432 96.891,267.494 96.799,267.638 96.797 C 267.798 96.795,267.822 96.737,267.700 96.647 C 267.590 96.566,267.488 96.275,267.473 96.000 C 267.409 94.832,267.174 92.662,267.061 92.200 C 266.993 91.925,266.923 91.475,266.906 91.200 C 266.888 90.925,266.806 90.498,266.723 90.250 C 266.618 89.936,266.652 89.799,266.837 89.797 C 267.013 89.795,267.028 89.745,266.883 89.647 C 266.593 89.451,266.175 88.203,266.320 87.968 C 266.383 87.866,266.347 87.674,266.240 87.541 C 265.922 87.146,265.737 86.000,265.991 86.000 C 266.147 86.000,266.154 85.887,266.014 85.626 C 265.904 85.421,265.871 85.196,265.940 85.126 C 266.010 85.057,265.913 85.000,265.725 85.000 C 265.536 85.000,265.405 84.888,265.432 84.750 C 265.506 84.373,264.980 82.389,264.830 82.481 C 264.759 82.525,264.676 82.238,264.647 81.843 C 264.618 81.448,264.474 80.985,264.328 80.813 C 264.181 80.641,264.003 80.337,263.932 80.137 C 263.857 79.927,263.705 79.835,263.571 79.918 C 263.440 79.999,263.392 79.975,263.461 79.864 C 263.528 79.755,263.514 79.409,263.430 79.094 L 263.277 78.523 262.876 78.924 M136.507 79.433 C 136.425 79.690,136.373 80.058,136.392 80.251 C 136.410 80.445,136.292 80.654,136.128 80.717 C 135.965 80.780,135.780 80.964,135.718 81.126 C 135.656 81.288,135.690 81.368,135.794 81.304 C 135.898 81.239,135.852 81.437,135.693 81.743 C 135.533 82.050,135.402 82.401,135.401 82.526 C 135.401 82.650,135.263 82.865,135.095 83.004 C 134.928 83.143,134.837 83.303,134.893 83.360 C 134.950 83.417,134.885 83.601,134.748 83.770 C 134.542 84.024,134.551 84.047,134.800 83.904 C 135.053 83.758,135.051 83.791,134.787 84.116 C 134.615 84.327,134.480 84.680,134.487 84.900 C 134.494 85.120,134.423 85.356,134.330 85.424 C 134.237 85.492,134.160 85.876,134.160 86.275 C 134.160 86.720,134.041 87.069,133.854 87.174 C 133.665 87.279,133.627 87.393,133.755 87.472 C 133.893 87.557,133.868 87.908,133.680 88.534 C 133.525 89.048,133.354 89.911,133.301 90.451 C 133.247 90.992,133.155 91.511,133.096 91.606 C 133.037 91.701,132.938 92.391,132.876 93.140 C 132.814 93.888,132.731 94.770,132.693 95.100 C 132.654 95.430,132.571 96.330,132.509 97.100 C 132.331 99.297,132.274 99.718,132.120 99.967 C 132.041 100.095,132.049 100.200,132.138 100.200 C 132.361 100.200,132.343 104.033,132.119 104.381 C 131.999 104.567,132.010 104.617,132.152 104.530 C 132.300 104.438,132.365 105.275,132.362 107.249 C 132.358 110.690,132.356 110.651,132.579 110.513 C 132.683 110.449,132.687 110.713,132.590 111.145 C 132.492 111.580,132.500 111.979,132.610 112.112 C 132.712 112.235,132.745 112.388,132.682 112.451 C 132.619 112.514,132.661 112.740,132.774 112.952 C 132.922 113.229,132.913 113.413,132.741 113.599 C 132.550 113.805,132.559 113.825,132.784 113.697 C 132.996 113.575,133.035 113.620,132.937 113.875 C 132.858 114.082,132.918 114.258,133.091 114.324 C 133.253 114.387,133.323 114.568,133.253 114.749 C 133.180 114.940,133.214 115.015,133.339 114.938 C 133.453 114.867,133.708 114.987,133.904 115.205 C 134.309 115.652,134.800 115.728,134.800 115.345 C 134.800 115.204,135.066 114.798,135.392 114.441 C 135.765 114.033,135.977 113.592,135.965 113.247 C 135.955 112.946,136.002 112.254,136.071 111.709 C 136.139 111.164,136.211 110.290,136.229 109.767 C 136.248 109.243,136.322 108.852,136.393 108.896 C 136.465 108.940,136.515 108.307,136.505 107.488 C 136.495 106.670,136.557 106.000,136.643 106.000 C 136.729 106.000,136.763 105.415,136.718 104.699 C 136.673 103.984,136.708 103.443,136.795 103.497 C 136.883 103.551,136.937 102.921,136.916 102.098 C 136.895 101.274,136.932 100.600,136.999 100.600 C 137.114 100.600,137.153 99.967,137.257 96.469 C 137.281 95.682,137.345 95.066,137.400 95.100 C 137.499 95.161,137.534 94.699,137.588 92.643 C 137.603 92.061,137.679 91.625,137.757 91.674 C 137.893 91.757,137.960 90.554,138.028 86.850 C 138.045 85.942,138.113 85.200,138.179 85.200 C 138.246 85.200,138.307 84.075,138.315 82.700 C 138.325 81.043,138.257 80.199,138.115 80.197 C 137.997 80.195,138.035 80.107,138.200 80.000 C 138.452 79.837,138.440 79.806,138.126 79.803 C 137.838 79.801,137.802 79.739,137.971 79.535 C 138.146 79.324,138.059 79.278,137.545 79.304 C 137.190 79.323,136.845 79.254,136.778 79.152 C 136.711 79.050,136.589 79.176,136.507 79.433 M133.731 138.323 C 133.657 144.800,133.520 150.126,133.427 150.157 C 133.333 150.189,133.086 150.351,132.878 150.517 C 132.540 150.787,132.565 150.788,133.118 150.521 L 133.736 150.223 133.868 145.679 C 133.940 143.180,134.000 138.135,134.000 134.468 C 134.000 130.156,134.071 127.800,134.200 127.800 C 134.483 127.800,134.448 127.342,134.133 126.911 C 133.909 126.605,133.845 128.430,133.731 138.323 M257.423 130.834 C 257.410 131.127,257.347 131.532,257.281 131.734 C 257.193 132.004,257.212 132.030,257.354 131.832 C 257.910 131.055,263.306 134.999,264.288 136.900 L 264.598 137.500 264.599 136.759 C 264.601 135.514,262.062 133.244,258.866 131.632 C 258.187 131.290,257.590 130.850,257.539 130.655 C 257.479 130.424,257.438 130.486,257.423 130.834 M140.900 131.755 C 137.903 133.349,135.393 135.649,135.413 136.783 C 135.424 137.449,135.439 137.466,135.619 137.016 C 136.172 135.631,141.730 131.377,142.566 131.698 C 142.757 131.771,142.806 131.704,142.722 131.486 C 142.655 131.311,142.600 131.130,142.600 131.084 C 142.600 130.900,142.240 131.042,140.900 131.755 M266.085 143.800 C 266.085 146.165,266.114 147.133,266.149 145.950 C 266.185 144.768,266.185 142.833,266.149 141.650 C 266.114 140.468,266.085 141.435,266.085 143.800 M262.906 148.502 C 262.817 148.831,262.719 149.291,262.689 149.525 C 262.658 149.759,262.569 150.299,262.492 150.725 C 262.415 151.151,262.334 151.680,262.313 151.900 C 262.292 152.120,262.157 152.705,262.012 153.200 C 261.867 153.695,261.723 154.370,261.692 154.700 C 261.661 155.030,261.574 155.795,261.498 156.400 C 261.422 157.005,261.332 157.815,261.299 158.200 C 261.265 158.585,261.221 158.900,261.201 158.900 C 261.182 158.900,261.140 159.170,261.109 159.500 C 261.078 159.830,260.990 160.595,260.915 161.200 C 260.702 162.906,260.566 164.239,260.534 164.950 C 260.518 165.308,260.443 165.600,260.367 165.600 C 260.291 165.600,260.264 165.873,260.306 166.206 C 260.348 166.540,260.319 166.774,260.241 166.726 C 260.164 166.677,260.103 167.177,260.106 167.835 C 260.109 168.493,260.051 169.069,259.976 169.115 C 259.901 169.161,259.862 169.492,259.888 169.850 C 259.915 170.207,259.854 170.770,259.752 171.100 C 259.651 171.430,259.531 172.375,259.486 173.200 C 259.390 174.923,259.348 175.206,259.133 175.550 C 259.042 175.694,259.071 175.800,259.202 175.800 C 259.333 175.800,259.376 175.960,259.305 176.184 C 259.043 177.009,258.944 177.526,258.929 178.150 C 258.920 178.508,258.853 178.800,258.780 178.800 C 258.707 178.800,258.674 179.250,258.706 179.800 C 258.738 180.350,258.683 180.800,258.584 180.800 C 258.485 180.800,258.411 181.003,258.419 181.250 C 258.426 181.498,258.375 182.240,258.303 182.900 C 258.232 183.560,258.141 184.640,258.100 185.300 C 258.060 185.960,258.012 186.500,257.995 186.500 C 257.977 186.500,257.932 186.815,257.896 187.200 C 257.859 187.585,257.768 188.530,257.694 189.300 C 257.620 190.070,257.535 190.970,257.504 191.300 C 257.474 191.630,257.385 192.305,257.308 192.800 C 257.230 193.295,257.241 193.625,257.333 193.534 C 257.504 193.362,263.230 148.458,263.126 148.102 C 263.094 147.992,262.995 148.172,262.906 148.502 M137.003 149.617 C 137.005 149.883,137.095 150.235,137.203 150.400 C 137.341 150.611,137.361 150.492,137.271 150.000 C 137.113 149.137,136.999 148.975,137.003 149.617 M266.200 150.092 C 266.200 150.147,266.560 150.376,267.000 150.600 C 267.440 150.824,267.800 150.963,267.800 150.908 C 267.800 150.853,267.440 150.624,267.000 150.400 C 266.560 150.176,266.200 150.037,266.200 150.092 M137.292 151.400 C 137.340 151.785,138.426 160.560,139.703 170.900 C 140.981 181.240,142.104 189.880,142.200 190.100 C 142.385 190.526,142.296 188.605,142.080 187.500 C 142.016 187.170,141.945 186.540,141.924 186.099 C 141.902 185.659,141.820 185.194,141.741 185.066 C 141.662 184.939,141.711 184.789,141.849 184.733 C 142.048 184.652,142.049 184.628,141.850 184.616 C 141.713 184.607,141.600 184.505,141.600 184.388 C 141.600 184.272,141.679 184.225,141.775 184.285 C 141.872 184.344,141.838 184.066,141.700 183.666 C 141.563 183.266,141.462 182.331,141.475 181.588 C 141.489 180.845,141.433 180.280,141.350 180.331 C 141.268 180.382,141.189 180.171,141.174 179.862 C 141.131 178.897,141.062 178.462,140.917 178.227 C 140.839 178.102,140.894 177.999,141.038 177.997 C 141.198 177.995,141.222 177.937,141.100 177.847 C 140.990 177.766,140.907 177.475,140.915 177.200 C 140.924 176.925,140.887 176.619,140.835 176.520 C 140.782 176.420,140.719 176.060,140.696 175.720 C 140.618 174.606,140.387 172.706,140.299 172.450 C 140.251 172.313,140.322 172.199,140.456 172.197 C 140.608 172.195,140.625 172.139,140.500 172.047 C 140.292 171.894,140.271 171.783,140.117 170.050 C 140.065 169.472,139.971 168.915,139.907 168.811 C 139.843 168.707,139.746 167.965,139.692 167.161 C 139.639 166.357,139.506 165.205,139.398 164.600 C 139.289 163.995,139.186 163.159,139.167 162.741 C 139.149 162.324,139.081 161.950,139.017 161.910 C 138.953 161.871,138.902 161.380,138.905 160.819 C 138.908 160.259,138.863 159.800,138.805 159.800 C 138.747 159.800,138.685 159.485,138.667 159.100 C 138.601 157.658,138.550 157.291,138.370 156.950 C 138.240 156.703,138.261 156.599,138.443 156.597 C 138.639 156.595,138.635 156.553,138.426 156.420 C 138.275 156.324,138.195 156.123,138.249 155.973 C 138.302 155.823,138.265 155.543,138.166 155.350 C 138.045 155.115,138.062 155.000,138.217 155.000 C 138.375 155.000,138.386 154.920,138.252 154.750 C 138.143 154.613,137.998 154.140,137.928 153.700 C 137.735 152.483,137.620 151.957,137.402 151.300 L 137.203 150.700 137.292 151.400 M124.788 157.650 C 123.001 159.099,122.896 159.191,123.026 159.196 C 123.095 159.198,123.680 158.958,124.326 158.661 C 124.972 158.365,125.950 158.019,126.500 157.892 L 127.500 157.661 126.636 157.511 C 126.014 157.402,125.803 157.282,125.880 157.080 C 126.039 156.665,125.936 156.719,124.788 157.650 M273.025 157.544 C 272.664 157.613,272.927 157.768,274.125 158.195 C 274.991 158.503,275.880 158.827,276.100 158.915 C 276.320 159.003,276.067 158.698,275.538 158.237 C 274.582 157.406,274.246 157.313,273.025 157.544 M130.454 158.568 C 131.209 158.867,129.697 160.663,127.200 162.432 C 123.977 164.716,118.936 166.515,117.665 165.835 C 117.337 165.659,117.189 165.767,116.627 166.589 C 113.472 171.212,120.439 169.303,130.148 162.883 C 131.714 161.847,133.019 161.000,133.048 161.000 C 133.106 161.000,133.080 166.243,133.020 166.400 C 132.906 166.703,132.954 169.364,133.077 169.563 C 133.158 169.694,133.161 169.901,133.084 170.026 C 132.888 170.343,132.848 173.800,133.041 173.800 C 133.129 173.800,133.200 173.895,133.200 174.012 C 133.200 174.128,133.132 174.182,133.049 174.130 C 132.965 174.079,132.909 174.615,132.924 175.322 C 132.939 176.028,132.875 176.653,132.783 176.710 C 132.691 176.768,132.719 177.043,132.846 177.321 C 133.032 177.730,133.021 177.864,132.789 178.011 C 132.589 178.137,132.577 178.195,132.750 178.197 C 132.888 178.199,133.000 178.328,133.000 178.483 C 133.000 178.639,132.888 178.812,132.750 178.868 C 132.613 178.923,132.590 178.976,132.700 178.984 C 132.933 179.003,132.954 187.589,132.723 187.964 C 132.642 188.095,132.682 188.200,132.813 188.200 C 132.989 188.200,132.986 188.276,132.800 188.500 C 132.663 188.665,132.630 188.800,132.726 188.800 C 132.821 188.800,132.900 190.960,132.900 193.600 C 132.900 196.240,132.839 198.400,132.764 198.400 C 132.586 198.400,132.677 199.239,132.893 199.589 C 132.993 199.751,132.985 199.814,132.873 199.745 C 132.758 199.674,132.687 200.686,132.692 202.333 C 132.696 203.821,132.642 205.074,132.571 205.118 C 132.500 205.162,132.512 205.509,132.598 205.890 C 132.702 206.352,132.679 206.613,132.527 206.675 C 132.373 206.738,132.380 206.774,132.550 206.784 C 132.688 206.793,132.800 206.928,132.800 207.083 C 132.800 207.239,132.688 207.412,132.550 207.468 C 132.350 207.548,132.350 207.572,132.550 207.584 C 132.688 207.593,132.800 207.695,132.800 207.812 C 132.800 207.928,132.696 207.959,132.569 207.881 C 132.410 207.782,132.394 207.825,132.519 208.019 C 132.728 208.345,132.776 216.000,132.569 216.000 C 132.421 216.000,132.557 217.968,132.724 218.238 C 132.779 218.327,132.727 218.400,132.609 218.400 C 132.476 218.400,132.434 218.705,132.498 219.214 C 132.569 219.782,132.509 220.119,132.300 220.329 C 132.135 220.494,132.000 220.819,132.000 221.053 C 132.000 221.451,132.016 221.455,132.262 221.118 C 132.493 220.803,132.514 220.847,132.440 221.485 C 132.389 221.922,132.208 222.289,131.985 222.408 C 131.772 222.522,131.663 222.732,131.728 222.902 C 131.791 223.065,131.910 223.156,131.993 223.104 C 132.076 223.053,132.086 223.346,132.015 223.755 C 131.902 224.409,131.888 225.070,131.978 225.550 C 131.993 225.632,132.095 225.565,132.204 225.400 C 132.392 225.114,132.393 225.189,132.212 226.200 C 132.202 226.255,132.127 226.194,132.044 226.065 C 131.962 225.935,131.906 226.880,131.921 228.165 C 131.953 231.016,131.956 231.051,132.182 230.911 C 132.283 230.849,132.335 230.956,132.298 231.149 C 132.261 231.342,132.222 231.545,132.212 231.600 C 132.202 231.655,132.102 231.565,131.990 231.400 C 131.794 231.111,131.824 237.517,132.100 255.100 C 132.154 258.510,132.253 266.565,132.320 273.000 L 132.443 284.700 131.926 289.000 C 131.335 293.917,130.879 299.239,130.702 303.300 C 130.634 304.840,130.544 306.752,130.502 307.550 C 130.440 308.714,130.482 309.000,130.712 309.000 C 130.871 309.000,131.045 309.000,131.100 309.000 C 131.155 309.000,131.178 308.933,131.150 308.850 C 131.123 308.768,131.026 308.725,130.935 308.755 C 130.844 308.785,130.827 308.718,130.897 308.605 C 130.967 308.492,130.923 308.400,130.800 308.400 C 130.677 308.400,130.632 308.310,130.700 308.200 C 130.768 308.090,130.914 308.000,131.024 308.000 C 131.134 308.000,131.168 308.090,131.100 308.200 C 131.032 308.310,131.069 308.400,131.181 308.400 C 131.294 308.400,131.488 308.591,131.613 308.824 C 131.772 309.122,131.775 309.208,131.620 309.112 C 131.328 308.932,131.353 309.189,131.685 309.790 C 131.835 310.059,131.906 310.413,131.844 310.575 C 131.762 310.788,131.825 310.833,132.070 310.739 C 132.352 310.631,132.375 310.673,132.205 310.991 C 132.059 311.264,132.072 311.447,132.250 311.636 C 132.388 311.781,132.523 312.215,132.552 312.600 C 132.613 313.422,133.366 317.364,133.545 317.800 C 133.678 318.122,133.792 318.858,133.809 319.491 C 133.814 319.706,133.888 319.976,133.973 320.091 C 134.058 320.206,134.143 320.552,134.162 320.861 C 134.182 321.169,134.276 321.574,134.371 321.761 C 134.467 321.947,134.528 322.298,134.507 322.541 C 134.485 322.791,134.555 322.928,134.668 322.858 C 134.785 322.786,134.817 322.866,134.746 323.052 C 134.679 323.227,134.725 323.714,134.848 324.135 C 134.972 324.556,135.057 324.964,135.039 325.043 C 135.020 325.122,135.096 325.427,135.208 325.720 C 135.319 326.014,135.460 326.580,135.519 326.977 C 135.758 328.565,136.930 332.741,137.252 333.150 C 137.360 333.288,137.391 333.400,137.319 333.400 C 137.248 333.400,137.329 333.670,137.500 334.000 C 137.671 334.330,137.753 334.600,137.682 334.600 C 137.612 334.600,137.699 334.822,137.877 335.093 C 138.055 335.364,138.200 335.718,138.200 335.879 C 138.200 336.040,138.341 336.313,138.514 336.486 C 138.687 336.659,138.779 336.800,138.718 336.800 C 138.657 336.800,138.787 337.121,139.007 337.513 C 139.227 337.905,139.356 338.310,139.292 338.413 C 139.228 338.516,139.266 338.600,139.375 338.600 C 139.484 338.600,139.637 338.802,139.716 339.049 C 139.794 339.296,139.992 339.597,140.157 339.717 C 140.321 339.837,140.417 340.050,140.370 340.191 C 140.323 340.332,140.535 340.716,140.841 341.044 C 141.148 341.372,141.355 341.711,141.301 341.798 C 141.248 341.884,141.338 342.066,141.502 342.202 C 141.666 342.338,141.800 342.618,141.800 342.824 C 141.800 343.031,141.887 343.200,141.994 343.200 C 142.101 343.200,142.470 343.786,142.816 344.502 C 143.161 345.217,143.525 345.854,143.625 345.915 C 143.725 345.977,143.762 346.100,143.707 346.188 C 143.653 346.276,143.776 346.542,143.982 346.779 C 144.187 347.016,144.471 347.500,144.613 347.855 C 144.754 348.210,145.040 348.747,145.248 349.049 C 145.455 349.350,145.574 349.680,145.511 349.782 C 145.449 349.883,145.469 349.996,145.555 350.033 C 145.843 350.155,146.607 351.627,146.485 351.824 C 146.419 351.930,146.458 352.129,146.571 352.266 C 146.685 352.402,146.744 352.691,146.704 352.907 C 146.664 353.123,146.624 353.418,146.615 353.562 C 146.607 353.706,146.510 353.768,146.400 353.700 C 146.290 353.632,146.200 353.620,146.200 353.674 C 146.200 354.212,151.218 356.665,154.900 357.927 C 163.033 360.714,168.007 361.400,180.084 361.400 L 188.753 361.400 188.869 360.957 C 188.933 360.714,188.921 360.466,188.842 360.407 C 188.764 360.348,188.678 360.188,188.650 360.050 C 188.623 359.913,188.578 359.688,188.550 359.550 C 188.511 359.353,190.855 359.296,199.700 359.281 C 205.860 359.271,211.125 359.197,211.400 359.118 C 211.675 359.039,211.810 359.047,211.699 359.137 C 211.589 359.227,211.468 359.570,211.430 359.900 C 211.393 360.230,211.290 360.527,211.202 360.560 C 208.575 361.539,227.280 361.788,233.106 360.850 C 240.408 359.676,247.415 357.528,251.402 355.241 C 252.644 354.529,254.480 353.266,253.650 353.694 C 253.497 353.773,253.391 353.683,253.377 353.462 C 253.365 353.263,253.325 352.853,253.289 352.550 C 253.253 352.248,253.294 352.000,253.379 352.000 C 253.464 352.000,253.548 351.865,253.567 351.700 C 253.585 351.535,253.615 351.265,253.633 351.100 C 253.652 350.935,253.742 350.800,253.833 350.800 C 253.925 350.800,254.000 350.665,254.000 350.500 C 254.000 350.335,254.095 350.200,254.212 350.200 C 254.328 350.200,254.368 350.110,254.300 350.000 C 254.232 349.890,254.272 349.800,254.388 349.800 C 254.505 349.800,254.600 349.620,254.600 349.400 C 254.600 349.160,254.733 349.000,254.933 349.000 C 255.117 349.000,255.220 348.953,255.162 348.895 C 255.104 348.838,255.447 348.015,255.922 347.066 C 256.398 346.118,256.741 345.266,256.684 345.173 C 256.626 345.081,256.723 345.060,256.898 345.127 C 257.073 345.194,257.194 345.171,257.166 345.075 C 257.138 344.979,257.227 344.697,257.365 344.450 C 257.502 344.202,257.549 344.000,257.469 344.000 C 257.389 344.000,257.498 343.858,257.712 343.685 C 257.925 343.512,257.988 343.427,257.850 343.497 C 257.713 343.567,257.600 343.528,257.600 343.412 C 257.600 343.295,257.690 343.200,257.799 343.200 C 257.908 343.200,258.190 342.792,258.424 342.294 C 258.658 341.796,259.039 341.256,259.269 341.094 C 259.500 340.932,259.627 340.800,259.552 340.800 C 259.414 340.800,261.241 337.095,261.589 336.671 C 261.692 336.546,261.729 336.396,261.672 336.339 C 261.615 336.281,261.708 336.021,261.879 335.761 C 262.050 335.500,262.230 335.065,262.280 334.793 C 262.330 334.522,262.388 334.278,262.410 334.250 C 262.432 334.223,262.469 334.132,262.492 334.050 C 262.515 333.968,262.639 333.645,262.768 333.333 C 262.897 333.021,262.952 332.684,262.890 332.583 C 262.827 332.482,262.872 332.400,262.988 332.400 C 263.105 332.400,263.181 332.332,263.158 332.250 C 263.134 332.168,263.232 331.888,263.375 331.630 C 263.519 331.371,263.591 330.988,263.537 330.779 C 263.482 330.570,263.519 330.450,263.619 330.512 C 263.783 330.613,263.897 329.880,263.815 329.250 C 263.797 329.113,263.876 329.000,263.991 329.000 C 264.106 329.000,264.201 328.753,264.201 328.450 C 264.202 328.148,264.318 327.675,264.460 327.400 C 264.602 327.125,264.702 326.608,264.682 326.250 C 264.663 325.893,264.711 325.600,264.790 325.600 C 264.869 325.600,264.939 325.488,264.946 325.350 C 264.957 325.120,265.148 323.914,265.286 323.200 C 265.318 323.035,265.407 322.755,265.483 322.578 C 265.559 322.401,265.648 322.041,265.681 321.778 C 265.713 321.515,265.855 320.895,265.995 320.400 C 266.135 319.905,266.273 319.185,266.302 318.800 C 266.331 318.415,266.402 317.965,266.461 317.800 C 266.519 317.635,266.575 317.343,266.587 317.150 C 266.648 316.077,266.693 315.834,266.815 315.909 C 266.889 315.955,267.010 315.457,267.084 314.802 C 267.158 314.148,267.306 313.558,267.413 313.492 C 267.519 313.426,267.561 313.299,267.506 313.209 C 267.380 313.006,267.781 310.772,267.992 310.500 C 268.078 310.390,268.207 309.972,268.279 309.570 C 268.436 308.700,268.876 308.248,269.257 308.564 C 269.584 308.836,269.585 308.827,269.373 304.200 C 269.151 299.353,268.710 294.112,268.075 288.800 L 267.561 284.500 267.781 266.300 C 267.901 256.290,268.058 244.793,268.129 240.750 C 268.238 234.535,268.215 233.400,267.979 233.397 C 267.772 233.395,267.762 233.354,267.943 233.240 C 268.123 233.125,268.174 231.994,268.143 228.862 C 268.119 226.539,268.156 224.672,268.224 224.715 C 268.292 224.757,268.359 224.298,268.373 223.696 C 268.390 222.943,268.320 222.599,268.149 222.597 C 267.964 222.595,267.960 222.556,268.134 222.445 C 268.273 222.357,268.363 221.807,268.356 221.098 C 268.349 220.391,268.286 220.061,268.204 220.293 C 268.074 220.658,268.040 220.648,267.705 220.136 C 267.508 219.834,267.408 219.525,267.484 219.450 C 267.560 219.374,267.705 219.444,267.808 219.606 C 267.953 219.836,267.995 219.797,267.997 219.429 C 267.999 219.104,267.912 218.991,267.718 219.066 C 267.431 219.176,267.556 218.357,267.915 217.776 C 268.007 217.626,267.976 217.591,267.831 217.681 C 267.704 217.759,267.600 217.728,267.600 217.612 C 267.600 217.495,267.680 217.400,267.779 217.400 C 267.880 217.400,267.869 217.052,267.754 216.600 C 267.643 216.160,267.495 215.800,267.426 215.800 C 267.213 215.799,267.284 210.513,267.500 210.335 C 267.630 210.228,267.612 210.134,267.450 210.068 C 267.163 209.951,267.106 209.000,267.386 209.000 C 267.564 209.000,267.520 207.160,267.334 206.850 C 267.284 206.767,267.309 206.276,267.389 205.759 C 267.469 205.241,267.466 204.859,267.382 204.911 C 267.195 205.027,267.269 203.865,267.461 203.672 C 267.537 203.596,267.599 203.436,267.597 203.317 C 267.595 203.198,267.507 203.235,267.400 203.400 C 267.234 203.656,267.206 203.649,267.203 203.350 C 267.201 203.158,267.278 203.000,267.372 203.000 C 267.544 203.000,267.533 202.606,267.331 201.546 C 267.273 201.241,267.297 201.036,267.384 201.090 C 267.543 201.188,267.517 197.976,267.357 197.663 C 267.311 197.574,267.279 195.385,267.287 192.800 C 267.295 189.882,267.224 188.044,267.100 187.953 C 266.967 187.855,266.967 187.805,267.100 187.803 C 267.335 187.799,267.359 174.419,267.125 174.040 C 267.041 173.905,267.080 173.800,267.213 173.800 C 267.392 173.800,267.391 173.730,267.207 173.509 C 267.074 173.349,267.035 173.105,267.120 172.968 C 267.301 172.675,267.296 171.211,267.111 170.168 C 267.033 169.731,267.066 169.383,267.190 169.306 C 267.306 169.235,267.394 168.844,267.386 168.438 C 267.376 167.914,267.330 167.807,267.226 168.071 C 267.146 168.274,267.085 166.857,267.090 164.921 C 267.096 162.984,267.125 161.400,267.155 161.400 C 267.185 161.400,268.355 162.151,269.755 163.069 C 275.637 166.926,281.716 169.726,283.081 169.207 C 284.754 168.571,283.186 165.948,281.094 165.887 C 277.390 165.779,270.648 162.042,269.271 159.333 C 269.094 158.985,268.927 158.674,268.899 158.642 C 268.872 158.609,268.265 158.730,267.550 158.909 L 266.251 159.236 266.121 193.268 C 265.986 228.724,265.937 234.029,265.596 250.400 C 265.398 259.876,264.928 275.077,264.702 279.300 C 264.643 280.400,264.457 283.865,264.288 287.000 C 263.856 295.048,262.879 306.268,262.462 307.967 C 262.360 308.384,262.269 308.420,261.631 308.300 C 258.636 307.738,256.542 304.079,255.788 298.085 C 255.499 295.793,255.659 230.923,255.980 220.100 C 256.087 216.470,256.231 211.610,256.298 209.300 C 256.392 206.091,256.366 205.187,256.190 205.468 C 256.064 205.671,255.999 206.102,256.047 206.427 C 256.094 206.752,256.062 207.062,255.974 207.116 C 255.887 207.170,255.900 207.436,256.003 207.707 C 256.106 207.978,256.113 208.200,256.019 208.200 C 255.924 208.200,255.849 208.493,255.850 208.850 C 255.852 209.207,255.791 210.310,255.715 211.300 C 255.639 212.290,255.539 213.730,255.493 214.500 C 255.446 215.270,255.364 216.350,255.310 216.900 C 254.994 220.116,254.586 227.739,254.526 231.550 C 254.512 232.457,254.455 233.200,254.400 233.200 C 254.345 233.201,254.284 234.348,254.265 235.750 C 254.246 237.153,254.179 239.875,254.117 241.800 C 254.054 243.725,254.001 246.380,253.999 247.700 C 253.998 249.020,253.924 250.754,253.836 251.554 C 253.748 252.354,253.718 253.051,253.770 253.103 C 253.868 253.202,253.830 255.245,253.692 257.300 C 253.648 257.960,253.612 259.820,253.612 261.434 C 253.612 263.264,253.534 264.417,253.403 264.498 C 253.288 264.569,253.257 264.730,253.334 264.855 C 253.412 264.981,253.456 265.717,253.433 266.492 C 253.410 267.266,253.350 270.555,253.300 273.800 C 253.250 277.045,253.195 279.723,253.179 279.750 C 253.080 279.919,253.098 280.372,253.222 280.839 C 253.314 281.184,253.282 281.412,253.133 281.473 C 252.974 281.538,252.983 281.573,253.162 281.584 C 253.323 281.594,253.361 281.696,253.262 281.850 C 253.108 282.087,253.039 283.852,253.023 287.900 C 253.019 288.890,253.024 289.925,253.035 290.200 C 253.045 290.475,252.984 292.770,252.899 295.300 C 252.731 300.281,252.731 300.174,252.862 302.450 C 252.911 303.303,252.872 304.000,252.775 304.000 C 252.679 304.000,252.600 304.095,252.600 304.212 C 252.600 304.328,252.704 304.359,252.831 304.281 C 252.987 304.184,253.007 304.227,252.891 304.414 C 252.797 304.566,252.709 308.203,252.695 312.495 C 252.681 316.788,252.601 320.615,252.517 321.000 C 252.433 321.385,252.367 321.859,252.370 322.054 C 252.373 322.249,252.205 322.904,251.996 323.510 C 251.754 324.216,251.704 324.559,251.859 324.464 C 251.991 324.382,251.940 324.559,251.745 324.858 C 251.550 325.156,251.460 325.401,251.545 325.403 C 251.630 325.405,251.585 325.479,251.445 325.568 C 251.212 325.716,250.994 326.326,250.951 326.950 C 250.941 327.088,250.858 327.200,250.767 327.200 C 250.675 327.200,250.600 327.335,250.600 327.500 C 250.600 327.665,250.495 327.800,250.367 327.800 C 250.238 327.800,250.195 327.862,250.270 327.937 C 250.346 328.012,250.764 327.726,251.200 327.300 C 251.636 326.874,252.025 326.565,252.065 326.613 C 252.105 326.661,252.380 327.488,252.675 328.451 C 253.268 330.378,253.247 330.512,252.197 331.500 C 251.392 332.258,251.154 332.854,251.400 333.500 C 251.665 334.198,252.072 334.126,253.070 333.206 L 253.932 332.412 254.447 334.129 L 254.961 335.846 254.281 336.444 C 253.706 336.949,253.600 337.174,253.600 337.896 C 253.600 339.233,254.351 339.523,255.191 338.511 C 255.616 337.999,255.693 338.113,256.396 340.288 L 257.071 342.376 255.307 344.298 C 252.435 347.427,248.174 351.252,246.103 352.562 C 245.265 353.092,244.401 353.449,241.664 354.398 C 226.716 359.580,175.361 359.692,158.900 354.579 C 156.172 353.731,155.493 353.349,154.098 351.872 C 153.111 350.828,152.782 350.600,152.260 350.600 C 151.534 350.600,148.755 348.183,145.068 344.347 L 143.036 342.232 143.605 340.419 C 144.342 338.067,144.318 338.096,145.030 338.695 C 146.416 339.861,147.093 337.834,145.773 336.472 C 145.091 335.769,145.119 335.138,145.916 333.231 L 146.210 332.528 146.963 333.264 C 148.811 335.068,149.435 333.168,147.624 331.254 L 146.823 330.408 147.235 328.954 C 147.461 328.154,147.691 327.343,147.747 327.150 C 147.883 326.673,147.892 326.677,149.118 327.724 C 149.713 328.233,150.200 328.552,150.200 328.434 C 150.200 328.316,150.078 328.148,149.929 328.060 C 149.780 327.972,149.459 327.360,149.216 326.700 C 148.973 326.040,148.659 325.320,148.519 325.100 C 148.380 324.880,148.151 324.115,148.012 323.400 C 147.873 322.685,147.721 321.920,147.675 321.700 C 147.629 321.480,147.555 320.830,147.511 320.256 C 147.467 319.682,147.378 319.126,147.312 319.020 C 147.247 318.914,147.286 318.770,147.400 318.700 C 147.514 318.630,147.565 318.506,147.515 318.424 C 147.309 318.091,147.206 312.762,147.399 312.401 C 147.510 312.194,147.529 311.980,147.441 311.925 C 147.314 311.847,147.284 309.103,147.374 305.700 C 147.398 304.768,147.348 304.408,147.207 304.496 C 147.124 304.547,147.116 304.254,147.189 303.845 C 147.262 303.435,147.264 302.823,147.193 302.485 C 147.123 302.146,147.101 301.336,147.146 300.685 C 147.190 300.033,147.224 299.410,147.221 299.300 C 147.218 299.190,147.161 297.075,147.094 294.600 C 147.027 292.125,146.956 289.492,146.936 288.750 C 146.916 288.007,146.953 287.400,147.017 287.400 C 147.081 287.400,147.133 287.265,147.133 287.100 C 147.133 286.935,147.081 286.800,147.017 286.800 C 146.953 286.800,146.892 285.337,146.883 283.550 C 146.868 280.569,146.850 278.709,146.796 274.300 C 146.738 269.667,146.683 268.217,146.561 268.094 C 146.486 268.020,146.506 267.746,146.605 267.487 C 146.704 267.227,146.710 266.968,146.618 266.911 C 146.527 266.855,146.431 265.434,146.404 263.754 C 146.378 262.074,146.335 260.250,146.309 259.700 C 146.283 259.150,146.360 258.570,146.481 258.412 C 146.643 258.198,146.640 258.159,146.468 258.262 C 146.299 258.363,146.234 257.949,146.231 256.751 C 146.229 255.843,146.218 255.055,146.206 255.000 C 146.195 254.945,146.147 253.235,146.099 251.200 C 145.891 242.347,145.840 241.026,145.693 240.789 C 145.586 240.615,145.619 240.588,145.803 240.702 C 146.004 240.826,146.030 240.773,145.910 240.483 C 145.773 240.151,145.597 236.196,145.544 232.261 C 145.534 231.512,145.450 231.069,145.333 231.142 C 145.212 231.216,145.205 231.155,145.313 230.981 C 145.463 230.740,145.466 229.774,145.326 226.500 C 145.312 226.170,145.210 225.834,145.100 225.753 C 144.975 225.661,144.992 225.605,145.144 225.603 C 145.278 225.601,145.351 225.488,145.307 225.350 C 145.263 225.213,145.171 224.245,145.103 223.200 C 145.035 222.155,144.942 220.760,144.897 220.100 C 144.851 219.440,144.796 218.566,144.775 218.158 C 144.753 217.750,144.660 217.463,144.568 217.520 C 144.476 217.576,144.485 217.402,144.588 217.132 C 144.690 216.862,144.724 216.591,144.663 216.530 C 144.602 216.468,144.522 215.762,144.486 214.959 C 144.382 212.635,144.263 210.900,144.206 210.900 C 144.178 210.900,144.136 210.266,144.114 209.491 C 144.093 208.716,144.026 207.996,143.966 207.891 C 143.907 207.786,143.880 207.340,143.908 206.900 C 143.935 206.460,143.873 205.965,143.770 205.800 C 143.651 205.610,143.626 206.786,143.702 209.000 C 144.128 221.454,144.232 230.058,144.335 261.500 C 144.443 294.159,144.427 296.858,144.107 298.888 C 143.377 303.535,141.967 306.506,139.931 307.688 C 139.051 308.199,137.601 308.562,137.598 308.272 C 137.598 308.178,137.510 307.560,137.404 306.900 C 135.883 297.450,134.630 269.671,134.192 235.648 C 134.078 226.787,133.942 219.469,133.891 219.386 C 133.840 219.303,133.797 205.777,133.795 189.327 C 133.793 167.892,133.731 159.381,133.574 159.284 C 133.453 159.209,132.713 158.982,131.927 158.778 C 130.497 158.406,129.790 158.306,130.454 158.568 M195.155 180.147 C 195.626 180.189,196.346 180.188,196.755 180.145 C 197.165 180.102,196.780 180.068,195.900 180.069 C 195.020 180.069,194.685 180.104,195.155 180.147 M203.355 180.147 C 203.826 180.189,204.546 180.188,204.955 180.145 C 205.365 180.102,204.980 180.068,204.100 180.069 C 203.220 180.069,202.885 180.104,203.355 180.147 M190.650 180.343 C 190.953 180.389,191.447 180.389,191.750 180.343 C 192.053 180.297,191.805 180.260,191.200 180.260 C 190.595 180.260,190.347 180.297,190.650 180.343 M208.250 180.343 C 208.553 180.389,209.048 180.389,209.350 180.343 C 209.653 180.297,209.405 180.260,208.800 180.260 C 208.195 180.260,207.947 180.297,208.250 180.343 M187.552 180.541 C 187.801 180.589,188.161 180.587,188.352 180.537 C 188.544 180.487,188.340 180.448,187.900 180.450 C 187.460 180.453,187.304 180.494,187.552 180.541 M211.752 180.541 C 212.001 180.589,212.361 180.587,212.552 180.537 C 212.744 180.487,212.540 180.448,212.100 180.450 C 211.660 180.453,211.504 180.494,211.752 180.541 M184.752 180.741 C 185.001 180.789,185.361 180.787,185.552 180.737 C 185.744 180.687,185.540 180.648,185.100 180.650 C 184.660 180.653,184.504 180.694,184.752 180.741 M214.552 180.741 C 214.801 180.789,215.161 180.787,215.352 180.737 C 215.544 180.687,215.340 180.648,214.900 180.650 C 214.460 180.653,214.304 180.694,214.552 180.741 M182.450 180.938 C 182.643 180.988,182.958 180.988,183.150 180.938 C 183.343 180.888,183.185 180.846,182.800 180.846 C 182.415 180.846,182.258 180.888,182.450 180.938 M216.850 180.938 C 217.043 180.988,217.357 180.988,217.550 180.938 C 217.743 180.888,217.585 180.846,217.200 180.846 C 216.815 180.846,216.657 180.888,216.850 180.938 M155.300 185.127 C 155.168 185.175,155.216 188.076,155.441 193.650 C 156.838 228.218,157.794 261.921,157.803 276.900 C 157.807 284.524,158.178 302.102,158.624 315.863 L 158.862 323.225 157.981 327.645 C 157.319 330.968,157.162 332.086,157.350 332.149 C 157.512 332.204,157.554 332.421,157.472 332.767 C 157.401 333.060,157.396 333.253,157.460 333.195 C 157.524 333.137,157.949 331.202,158.404 328.895 C 158.860 326.588,159.338 324.356,159.466 323.936 L 159.700 323.171 161.000 323.288 C 164.572 323.607,177.105 324.233,187.500 324.611 C 200.356 325.078,217.540 324.682,235.786 323.496 C 238.253 323.336,240.285 323.226,240.302 323.252 C 240.488 323.542,241.106 326.139,241.622 328.800 C 242.334 332.468,242.278 332.290,242.660 332.143 C 242.886 332.056,242.773 331.242,242.051 327.768 L 241.164 323.500 241.390 316.200 C 241.893 299.935,242.014 294.152,242.196 277.400 C 242.455 253.665,242.945 235.215,244.210 201.500 C 244.715 188.060,244.764 185.162,244.491 185.067 C 244.350 185.018,244.168 187.940,243.938 193.947 C 243.264 211.486,242.607 230.867,242.311 241.900 C 242.146 248.060,241.960 254.585,241.897 256.400 C 241.834 258.215,241.698 267.620,241.595 277.300 C 241.492 286.980,241.317 298.185,241.206 302.200 C 240.973 310.643,240.581 322.487,240.533 322.528 C 240.082 322.916,208.954 324.199,200.000 324.199 C 189.740 324.200,160.020 322.904,159.567 322.437 C 159.435 322.302,159.183 315.388,158.791 301.200 C 158.680 297.185,158.505 286.340,158.401 277.100 C 158.222 261.138,158.060 253.309,157.597 238.300 C 156.964 217.742,155.714 185.226,155.553 185.097 C 155.524 185.074,155.410 185.087,155.300 185.127 M142.200 191.088 C 142.200 191.357,142.275 191.623,142.367 191.679 C 142.458 191.736,142.533 191.516,142.533 191.191 C 142.533 190.866,142.458 190.600,142.367 190.600 C 142.275 190.600,142.200 190.820,142.200 191.088 M142.400 192.600 C 142.400 192.930,142.474 193.200,142.565 193.200 C 142.656 193.200,142.691 192.930,142.643 192.600 C 142.594 192.270,142.520 192.000,142.477 192.000 C 142.435 192.000,142.400 192.270,142.400 192.600 M257.184 194.450 C 257.125 194.880,257.155 195.125,257.256 195.024 C 257.352 194.928,257.399 194.590,257.360 194.274 C 257.294 193.746,257.280 193.760,257.184 194.450 M257.046 196.000 C 257.046 196.385,257.088 196.543,257.138 196.350 C 257.188 196.158,257.188 195.843,257.138 195.650 C 257.088 195.458,257.046 195.615,257.046 196.000 M143.254 200.000 C 143.254 200.495,143.293 200.697,143.341 200.450 C 143.389 200.203,143.389 199.798,143.341 199.550 C 143.293 199.303,143.254 199.505,143.254 200.000 M256.627 200.200 C 256.609 200.475,256.548 200.925,256.492 201.200 L 256.389 201.700 256.604 201.208 C 256.722 200.937,256.783 200.487,256.739 200.208 L 256.660 199.700 256.627 200.200 M256.416 202.600 C 256.381 203.095,256.329 203.845,256.300 204.267 C 256.267 204.740,256.318 204.962,256.433 204.847 C 256.535 204.745,256.587 203.995,256.549 203.181 C 256.499 202.108,256.462 201.948,256.416 202.600 M143.400 203.455 C 143.400 203.962,143.484 204.429,143.588 204.492 C 143.699 204.561,143.739 204.226,143.687 203.671 C 143.571 202.427,143.400 202.299,143.400 203.455 M132.256 224.824 C 132.155 224.925,132.125 224.680,132.184 224.250 C 132.280 223.560,132.294 223.546,132.360 224.074 C 132.399 224.390,132.352 224.728,132.256 224.824 M224.250 336.138 C 224.443 336.188,224.757 336.188,224.950 336.138 C 225.143 336.088,224.985 336.046,224.600 336.046 C 224.215 336.046,224.058 336.088,224.250 336.138 M177.050 336.338 C 177.243 336.388,177.558 336.388,177.750 336.338 C 177.942 336.288,177.785 336.246,177.400 336.246 C 177.015 336.246,176.858 336.288,177.050 336.338 M222.450 336.338 C 222.643 336.388,222.957 336.388,223.150 336.338 C 223.343 336.288,223.185 336.246,222.800 336.246 C 222.415 336.246,222.257 336.288,222.450 336.338 M179.050 336.538 C 179.243 336.588,179.558 336.588,179.750 336.538 C 179.942 336.488,179.785 336.446,179.400 336.446 C 179.015 336.446,178.858 336.488,179.050 336.538 M220.352 336.541 C 220.601 336.589,220.961 336.587,221.152 336.537 C 221.344 336.487,221.140 336.448,220.700 336.450 C 220.260 336.453,220.104 336.494,220.352 336.541 M181.352 336.741 C 181.601 336.789,181.961 336.787,182.152 336.737 C 182.344 336.687,182.140 336.648,181.700 336.650 C 181.260 336.653,181.104 336.694,181.352 336.741 M218.152 336.741 C 218.401 336.789,218.761 336.787,218.952 336.737 C 219.144 336.687,218.940 336.648,218.500 336.650 C 218.060 336.653,217.904 336.694,218.152 336.741 M155.643 337.050 C 155.033 337.791,155.271 339.400,155.990 339.400 C 156.197 339.400,156.404 339.512,156.450 339.649 C 156.495 339.786,156.591 339.407,156.662 338.807 C 156.834 337.354,156.238 336.327,155.643 337.050 M183.653 336.944 C 183.957 336.989,184.407 336.988,184.653 336.941 C 184.899 336.893,184.650 336.856,184.100 336.857 C 183.550 336.859,183.349 336.898,183.653 336.944 M215.550 336.941 C 215.798 336.989,216.203 336.989,216.450 336.941 C 216.697 336.893,216.495 336.854,216.000 336.854 C 215.505 336.854,215.303 336.893,215.550 336.941 M243.607 337.187 C 243.179 337.987,243.447 339.400,244.028 339.400 C 244.630 339.400,244.910 338.555,244.624 337.601 C 244.365 336.736,243.941 336.564,243.607 337.187 M186.250 337.143 C 186.553 337.189,187.048 337.189,187.350 337.143 C 187.653 337.097,187.405 337.060,186.800 337.060 C 186.195 337.060,185.947 337.097,186.250 337.143 M212.850 337.143 C 213.153 337.189,213.648 337.189,213.950 337.143 C 214.253 337.097,214.005 337.060,213.400 337.060 C 212.795 337.060,212.548 337.097,212.850 337.143 M189.350 337.345 C 189.708 337.389,190.293 337.389,190.650 337.345 C 191.008 337.300,190.715 337.264,190.000 337.264 C 189.285 337.264,188.993 337.300,189.350 337.345 M209.550 337.345 C 209.907 337.389,210.493 337.389,210.850 337.345 C 211.207 337.300,210.915 337.264,210.200 337.264 C 209.485 337.264,209.193 337.300,209.550 337.345 M192.946 337.544 C 193.301 337.589,193.931 337.589,194.346 337.546 C 194.760 337.503,194.470 337.467,193.700 337.466 C 192.930 337.465,192.590 337.500,192.946 337.544 M205.650 337.546 C 206.063 337.589,206.738 337.589,207.150 337.546 C 207.563 337.503,207.225 337.467,206.400 337.467 C 205.575 337.467,205.238 337.503,205.650 337.546 M198.240 337.749 C 199.197 337.785,200.817 337.786,201.840 337.749 C 202.863 337.713,202.080 337.683,200.100 337.683 C 198.120 337.682,197.283 337.712,198.240 337.749 M153.807 343.787 C 153.452 344.450,153.557 345.757,154.000 346.200 C 154.674 346.874,155.754 346.609,155.547 345.821 C 155.487 345.590,155.519 345.350,155.619 345.288 C 155.718 345.227,155.791 344.979,155.780 344.738 C 155.762 344.330,155.749 344.335,155.600 344.800 C 155.457 345.246,155.438 345.254,155.420 344.877 C 155.371 343.833,154.204 343.044,153.807 343.787 M245.005 343.939 C 244.400 344.709,244.489 346.470,245.138 346.562 C 246.189 346.712,246.911 344.540,246.086 343.714 C 245.654 343.283,245.495 343.316,245.005 343.939 M246.401 351.323 C 244.925 352.657,245.853 352.563,247.400 351.223 C 248.043 350.666,248.063 350.616,247.651 350.608 C 247.403 350.604,246.841 350.925,246.401 351.323 "
       stroke="none"
       fill="#ea2e31"
       fill-rule="evenodd" />
    <path
       id="path4"
       d="M178.100 37.746 C 164.330 39.711,153.758 45.712,143.170 57.571 C 133.476 68.431,129.483 77.280,127.612 92.049 C 126.752 98.838,126.554 110.714,127.208 116.300 C 127.324 117.290,127.527 126.219,127.660 136.143 L 127.900 154.186 129.291 153.008 C 130.055 152.360,131.324 151.442,132.109 150.968 L 133.537 150.105 133.668 144.003 C 133.740 140.646,133.799 135.339,133.800 132.210 C 133.800 125.244,134.026 125.055,134.828 131.346 C 135.133 133.741,135.387 135.782,135.392 135.883 C 135.396 135.983,136.008 135.484,136.750 134.773 C 138.374 133.219,139.030 132.746,141.012 131.700 L 142.529 130.900 141.872 127.400 C 140.958 122.523,140.958 122.526,142.279 121.220 L 143.359 120.155 143.489 117.727 C 144.349 101.684,147.012 75.000,147.753 75.000 C 147.972 75.000,148.016 75.161,147.928 75.650 C 146.748 82.251,143.509 118.775,144.055 119.322 C 144.116 119.383,144.646 119.042,145.233 118.565 C 172.193 96.641,227.350 96.423,254.242 118.134 C 255.122 118.844,255.892 119.374,255.954 119.312 C 256.504 118.762,253.137 80.717,252.081 75.550 C 251.996 75.135,252.046 75.000,252.284 75.000 C 252.458 75.000,252.600 75.077,252.600 75.171 C 252.600 75.265,252.909 77.898,253.287 81.021 C 254.712 92.798,255.923 106.235,256.412 115.700 L 256.639 120.100 257.724 121.210 C 259.055 122.572,259.056 122.578,258.223 127.022 C 257.430 131.252,257.379 130.883,258.850 131.624 C 260.676 132.545,262.359 133.733,263.530 134.926 L 264.560 135.977 264.670 135.338 C 264.730 134.987,264.970 133.080,265.203 131.100 C 265.436 129.120,265.697 127.320,265.784 127.100 C 265.870 126.880,266.004 131.920,266.081 138.300 C 266.206 148.554,266.258 149.923,266.538 150.100 C 268.797 151.530,269.895 152.301,270.900 153.162 L 272.100 154.191 272.243 141.446 C 272.396 127.734,272.671 117.778,273.021 113.300 C 274.496 94.384,270.687 76.193,262.942 65.162 C 252.538 50.344,240.168 41.469,225.782 38.501 C 219.391 37.182,217.840 37.401,216.877 39.756 C 216.864 39.787,215.479 39.675,213.800 39.506 C 205.705 38.695,194.223 38.693,186.225 39.502 C 183.319 39.796,183.000 39.779,183.000 39.326 C 183.000 38.174,180.575 37.392,178.100 37.746 M201.271 39.455 C 201.162 39.635,201.200 39.646,201.412 39.498 C 201.570 39.387,202.330 39.316,203.100 39.340 C 205.210 39.408,208.505 39.577,210.300 39.711 C 211.180 39.777,212.485 39.854,213.200 39.883 C 215.769 39.987,217.753 40.325,218.155 40.726 C 218.307 40.879,218.501 40.961,218.586 40.909 C 218.671 40.856,218.859 41.037,219.005 41.310 C 219.152 41.583,219.571 42.036,219.937 42.315 C 220.618 42.834,221.483 44.250,221.258 44.475 C 221.189 44.544,221.238 44.600,221.367 44.600 C 221.701 44.600,221.654 45.117,221.286 45.486 C 221.113 45.659,221.026 45.800,221.094 45.800 C 221.161 45.800,221.055 45.973,220.858 46.184 C 220.464 46.606,218.930 46.716,218.058 46.384 C 217.745 46.265,217.620 46.271,217.700 46.400 C 217.779 46.528,217.659 46.537,217.361 46.425 C 217.108 46.330,216.651 46.279,216.346 46.313 C 216.042 46.346,215.830 46.312,215.875 46.237 C 215.948 46.116,214.421 45.987,212.150 45.922 C 211.738 45.910,211.400 45.855,211.400 45.800 C 211.400 45.745,211.107 45.695,210.750 45.690 C 210.393 45.684,209.560 45.608,208.900 45.519 C 208.240 45.431,207.610 45.363,207.500 45.368 C 207.390 45.374,206.827 45.406,206.250 45.439 C 205.672 45.473,205.200 45.455,205.200 45.400 C 205.200 45.305,202.121 45.307,201.700 45.402 C 201.188 45.518,200.248 45.484,200.329 45.353 C 200.403 45.234,194.940 45.292,194.600 45.415 C 194.303 45.521,193.442 45.491,193.050 45.360 C 192.803 45.277,192.600 45.276,192.600 45.357 C 192.600 45.438,192.105 45.499,191.500 45.493 C 190.895 45.487,190.400 45.547,190.400 45.627 C 190.400 45.707,190.130 45.695,189.800 45.600 C 189.470 45.505,189.200 45.489,189.200 45.564 C 189.200 45.639,188.593 45.723,187.850 45.751 C 187.108 45.779,186.185 45.850,185.800 45.908 C 185.148 46.007,184.282 46.093,182.292 46.257 C 181.848 46.294,181.376 46.391,181.242 46.474 C 181.109 46.556,181.000 46.543,181.000 46.445 C 181.000 46.347,180.865 46.267,180.700 46.267 C 180.535 46.267,180.400 46.329,180.400 46.406 C 180.400 46.659,179.413 46.442,179.089 46.118 C 178.915 45.943,178.826 45.800,178.893 45.800 C 178.959 45.800,178.912 45.610,178.788 45.378 C 178.466 44.776,179.020 43.434,180.012 42.411 C 180.445 41.965,180.800 41.636,180.800 41.680 C 180.800 41.724,181.080 41.499,181.421 41.180 C 182.056 40.587,182.540 40.401,182.277 40.850 C 182.197 40.988,182.332 40.924,182.577 40.709 C 182.868 40.453,183.382 40.297,184.061 40.258 C 185.199 40.192,186.100 40.079,186.100 40.001 C 186.100 39.974,186.730 39.920,187.500 39.881 C 188.270 39.841,189.350 39.759,189.900 39.698 C 190.450 39.637,191.955 39.562,193.244 39.533 C 194.533 39.503,195.628 39.439,195.678 39.390 C 195.917 39.153,201.413 39.217,201.271 39.455 M164.523 47.113 C 162.408 52.625,158.011 61.239,154.833 66.100 C 151.341 71.439,145.508 76.102,139.828 78.092 L 138.956 78.398 139.069 77.749 C 139.132 77.392,139.294 75.985,139.430 74.622 L 139.678 72.144 141.101 69.704 C 146.597 60.288,154.399 52.283,162.400 47.852 C 164.442 46.721,164.709 46.628,164.523 47.113 M236.984 47.492 C 246.739 52.404,259.849 67.409,260.582 74.500 C 260.707 75.710,260.863 77.080,260.927 77.545 L 261.044 78.391 260.094 78.067 C 254.285 76.088,248.441 71.244,244.567 65.200 C 241.593 60.559,234.817 46.800,235.505 46.800 C 235.563 46.800,236.228 47.111,236.984 47.492 M262.500 78.200 C 262.432 78.310,262.532 78.400,262.722 78.400 C 262.911 78.400,263.014 78.453,262.950 78.517 C 262.886 78.581,262.758 78.633,262.667 78.634 C 262.575 78.634,262.396 78.721,262.268 78.827 C 262.117 78.952,261.990 78.946,261.906 78.810 C 261.835 78.694,261.877 78.600,262.000 78.600 C 262.123 78.600,262.173 78.518,262.111 78.417 C 262.048 78.316,262.111 78.189,262.249 78.133 C 262.625 77.981,262.634 77.984,262.500 78.200 M137.602 78.898 C 137.466 79.062,137.265 79.140,137.156 79.073 C 137.035 78.998,137.064 78.883,137.229 78.778 C 137.660 78.505,137.872 78.573,137.602 78.898 M263.461 79.864 C 263.392 79.975,263.440 79.999,263.571 79.918 C 263.705 79.835,263.857 79.927,263.932 80.137 C 264.003 80.337,264.181 80.641,264.328 80.813 C 264.474 80.985,264.618 81.448,264.647 81.843 C 264.676 82.238,264.759 82.525,264.830 82.481 C 264.980 82.389,265.506 84.373,265.432 84.750 C 265.405 84.888,265.536 85.000,265.725 85.000 C 265.913 85.000,266.010 85.057,265.940 85.126 C 265.871 85.196,265.904 85.421,266.014 85.626 C 266.154 85.887,266.147 86.000,265.991 86.000 C 265.737 86.000,265.922 87.146,266.240 87.541 C 266.347 87.674,266.383 87.866,266.320 87.968 C 266.175 88.203,266.593 89.451,266.883 89.647 C 267.028 89.745,267.013 89.795,266.837 89.797 C 266.652 89.799,266.618 89.936,266.723 90.250 C 266.806 90.498,266.888 90.925,266.906 91.200 C 266.923 91.475,266.993 91.925,267.061 92.200 C 267.174 92.662,267.409 94.832,267.473 96.000 C 267.488 96.275,267.590 96.566,267.700 96.647 C 267.822 96.737,267.798 96.795,267.638 96.797 C 267.494 96.799,267.432 96.891,267.501 97.002 C 267.570 97.113,267.662 98.620,267.706 100.352 C 267.750 102.083,267.789 103.618,267.793 103.762 C 267.797 103.906,267.875 103.977,267.967 103.921 C 268.058 103.864,268.133 103.945,268.133 104.100 C 268.133 104.255,268.058 104.336,267.967 104.279 C 267.875 104.223,267.800 104.547,267.800 105.000 C 267.800 105.460,267.883 105.773,267.987 105.708 C 268.103 105.636,268.103 105.841,267.986 106.246 C 267.883 106.606,267.783 107.868,267.765 109.050 C 267.746 110.233,267.665 111.200,267.585 111.200 C 267.505 111.200,267.483 111.615,267.536 112.122 C 267.598 112.723,267.560 112.999,267.426 112.916 C 267.304 112.841,267.252 112.953,267.299 113.195 C 267.342 113.418,267.277 113.600,267.155 113.600 C 267.033 113.600,266.994 113.660,267.067 113.734 C 267.141 113.808,267.057 114.089,266.880 114.359 C 266.703 114.628,266.664 114.784,266.794 114.704 C 266.958 114.602,266.952 114.682,266.775 114.966 C 266.635 115.191,266.458 115.336,266.383 115.289 C 266.307 115.243,266.132 115.340,265.994 115.507 C 265.783 115.761,265.803 115.792,266.122 115.697 C 266.330 115.636,266.212 115.738,265.859 115.925 C 265.144 116.303,264.600 116.075,264.600 115.397 C 264.600 115.202,264.456 114.987,264.279 114.920 C 264.100 114.851,264.008 114.668,264.071 114.505 C 264.132 114.344,264.090 114.156,263.978 114.086 C 263.865 114.017,263.824 113.826,263.887 113.662 C 263.950 113.498,263.934 113.260,263.853 113.132 C 263.771 113.004,263.678 112.540,263.646 112.100 C 263.614 111.660,263.543 110.760,263.487 110.100 C 263.431 109.440,263.351 108.225,263.309 107.400 C 263.268 106.575,263.180 105.315,263.114 104.600 C 262.999 103.351,262.893 101.736,262.701 98.300 C 262.652 97.420,262.559 96.250,262.495 95.700 C 262.431 95.150,262.341 94.115,262.296 93.400 C 262.250 92.685,262.201 92.100,262.187 92.100 C 262.141 92.100,261.973 88.505,261.971 87.448 C 261.969 86.870,261.907 86.434,261.833 86.480 C 261.758 86.526,261.698 85.455,261.699 84.101 C 261.699 82.746,261.632 81.680,261.550 81.731 C 261.468 81.782,261.400 81.728,261.400 81.612 C 261.400 81.495,261.476 81.400,261.569 81.400 C 261.662 81.400,261.716 81.063,261.689 80.651 C 261.633 79.819,261.907 79.136,262.251 79.250 C 262.374 79.291,262.656 79.144,262.876 78.924 L 263.277 78.523 263.430 79.094 C 263.514 79.409,263.528 79.755,263.461 79.864 M137.545 79.304 C 138.059 79.278,138.146 79.324,137.971 79.535 C 137.802 79.739,137.838 79.801,138.126 79.803 C 138.440 79.806,138.452 79.837,138.200 80.000 C 138.035 80.107,137.997 80.195,138.115 80.197 C 138.257 80.199,138.325 81.043,138.315 82.700 C 138.307 84.075,138.246 85.200,138.179 85.200 C 138.113 85.200,138.045 85.942,138.028 86.850 C 137.960 90.554,137.893 91.757,137.757 91.674 C 137.679 91.625,137.603 92.061,137.588 92.643 C 137.534 94.699,137.499 95.161,137.400 95.100 C 137.345 95.066,137.281 95.682,137.257 96.469 C 137.153 99.967,137.114 100.600,136.999 100.600 C 136.932 100.600,136.895 101.274,136.916 102.098 C 136.937 102.921,136.883 103.551,136.795 103.497 C 136.708 103.443,136.673 103.984,136.718 104.699 C 136.763 105.415,136.729 106.000,136.643 106.000 C 136.557 106.000,136.495 106.670,136.505 107.488 C 136.515 108.307,136.465 108.940,136.393 108.896 C 136.322 108.852,136.248 109.243,136.229 109.767 C 136.211 110.290,136.139 111.164,136.071 111.709 C 136.002 112.254,135.955 112.946,135.965 113.247 C 135.977 113.592,135.765 114.033,135.392 114.441 C 135.066 114.798,134.800 115.204,134.800 115.345 C 134.800 115.728,134.309 115.652,133.904 115.205 C 133.708 114.987,133.453 114.867,133.339 114.938 C 133.214 115.015,133.180 114.940,133.253 114.749 C 133.323 114.568,133.253 114.387,133.091 114.324 C 132.918 114.258,132.858 114.082,132.937 113.875 C 133.035 113.620,132.996 113.575,132.784 113.697 C 132.559 113.825,132.550 113.805,132.741 113.599 C 132.913 113.413,132.922 113.229,132.774 112.952 C 132.661 112.740,132.619 112.514,132.682 112.451 C 132.745 112.388,132.712 112.235,132.610 112.112 C 132.500 111.979,132.492 111.580,132.590 111.145 C 132.687 110.713,132.683 110.449,132.579 110.513 C 132.356 110.651,132.358 110.690,132.362 107.249 C 132.365 105.275,132.300 104.438,132.152 104.530 C 132.010 104.617,131.999 104.567,132.119 104.381 C 132.343 104.033,132.361 100.200,132.138 100.200 C 132.049 100.200,132.041 100.095,132.120 99.967 C 132.274 99.718,132.331 99.297,132.509 97.100 C 132.571 96.330,132.654 95.430,132.693 95.100 C 132.731 94.770,132.814 93.888,132.876 93.140 C 132.938 92.391,133.037 91.701,133.096 91.606 C 133.155 91.511,133.247 90.992,133.301 90.451 C 133.354 89.911,133.525 89.048,133.680 88.534 C 133.868 87.908,133.893 87.557,133.755 87.472 C 133.627 87.393,133.665 87.279,133.854 87.174 C 134.041 87.069,134.160 86.720,134.160 86.275 C 134.160 85.876,134.237 85.492,134.330 85.424 C 134.423 85.356,134.494 85.120,134.487 84.900 C 134.480 84.680,134.615 84.327,134.787 84.116 C 135.051 83.791,135.053 83.758,134.800 83.904 C 134.551 84.047,134.542 84.024,134.748 83.770 C 134.885 83.601,134.950 83.417,134.893 83.360 C 134.837 83.303,134.928 83.143,135.095 83.004 C 135.263 82.865,135.401 82.650,135.401 82.526 C 135.402 82.401,135.533 82.050,135.693 81.743 C 135.852 81.437,135.898 81.239,135.794 81.304 C 135.690 81.368,135.656 81.288,135.718 81.126 C 135.780 80.964,135.965 80.780,136.128 80.717 C 136.292 80.654,136.410 80.445,136.392 80.251 C 136.344 79.751,136.632 78.930,136.778 79.152 C 136.845 79.254,137.190 79.323,137.545 79.304 M140.492 132.647 C 138.439 133.854,135.600 136.503,135.600 137.211 C 135.600 137.538,136.844 147.283,137.300 150.534 C 137.349 150.884,137.554 151.829,137.704 152.400 C 137.718 152.455,137.802 152.950,137.890 153.500 C 137.978 154.050,138.140 154.613,138.250 154.750 C 138.386 154.921,138.376 155.000,138.217 155.000 C 138.062 155.000,138.045 155.115,138.166 155.350 C 138.265 155.543,138.302 155.823,138.249 155.973 C 138.195 156.123,138.275 156.324,138.426 156.420 C 138.635 156.553,138.639 156.595,138.443 156.597 C 138.261 156.599,138.240 156.703,138.370 156.950 C 138.550 157.291,138.601 157.658,138.667 159.100 C 138.685 159.485,138.747 159.800,138.805 159.800 C 138.863 159.800,138.908 160.259,138.905 160.819 C 138.902 161.380,138.953 161.871,139.017 161.910 C 139.081 161.950,139.149 162.324,139.167 162.741 C 139.186 163.159,139.289 163.995,139.398 164.600 C 139.506 165.205,139.639 166.357,139.692 167.161 C 139.746 167.965,139.843 168.707,139.907 168.811 C 139.971 168.915,140.065 169.472,140.117 170.050 C 140.271 171.783,140.292 171.894,140.500 172.047 C 140.625 172.139,140.608 172.195,140.456 172.197 C 140.322 172.199,140.251 172.313,140.299 172.450 C 140.387 172.706,140.618 174.606,140.696 175.720 C 140.719 176.060,140.782 176.420,140.835 176.520 C 140.887 176.619,140.924 176.925,140.915 177.200 C 140.907 177.475,140.990 177.766,141.100 177.847 C 141.222 177.937,141.198 177.995,141.038 177.997 C 140.894 177.999,140.839 178.102,140.917 178.227 C 141.062 178.462,141.131 178.897,141.174 179.862 C 141.189 180.171,141.268 180.382,141.350 180.331 C 141.433 180.280,141.489 180.845,141.475 181.588 C 141.462 182.331,141.563 183.266,141.700 183.666 C 141.838 184.066,141.872 184.344,141.775 184.285 C 141.679 184.225,141.600 184.264,141.600 184.372 C 141.600 184.479,141.713 184.612,141.850 184.668 C 142.042 184.745,142.040 184.772,141.838 184.784 C 141.681 184.794,141.638 184.900,141.730 185.049 C 141.815 185.186,141.901 185.659,141.922 186.099 C 141.942 186.540,142.022 187.215,142.100 187.600 C 142.177 187.985,142.254 188.817,142.270 189.450 C 142.287 190.082,142.352 190.600,142.416 190.600 C 142.480 190.600,142.536 190.938,142.541 191.350 C 142.553 192.436,142.949 196.598,143.114 197.362 C 143.169 197.616,143.257 198.426,143.309 199.162 C 143.362 199.898,143.456 201.130,143.518 201.900 C 143.579 202.670,143.669 203.885,143.717 204.600 C 143.869 206.857,143.949 207.798,143.993 207.850 C 144.017 207.878,144.063 208.575,144.095 209.400 C 144.128 210.225,144.178 210.900,144.206 210.900 C 144.263 210.900,144.382 212.635,144.486 214.959 C 144.522 215.762,144.602 216.468,144.663 216.530 C 144.724 216.591,144.690 216.862,144.588 217.132 C 144.485 217.402,144.476 217.576,144.568 217.520 C 144.660 217.463,144.753 217.750,144.775 218.158 C 144.796 218.566,144.851 219.440,144.897 220.100 C 144.942 220.760,145.035 222.155,145.103 223.200 C 145.171 224.245,145.263 225.213,145.307 225.350 C 145.351 225.488,145.278 225.601,145.144 225.603 C 144.992 225.605,144.975 225.661,145.100 225.753 C 145.210 225.834,145.312 226.170,145.326 226.500 C 145.466 229.774,145.463 230.740,145.313 230.981 C 145.205 231.155,145.212 231.216,145.333 231.142 C 145.450 231.069,145.534 231.512,145.544 232.261 C 145.597 236.196,145.773 240.151,145.910 240.483 C 146.030 240.773,146.004 240.826,145.803 240.702 C 145.619 240.588,145.586 240.615,145.693 240.789 C 145.840 241.026,145.891 242.347,146.099 251.200 C 146.147 253.235,146.195 254.945,146.206 255.000 C 146.218 255.055,146.229 255.843,146.231 256.751 C 146.234 257.949,146.299 258.363,146.468 258.262 C 146.640 258.159,146.643 258.198,146.481 258.412 C 146.360 258.570,146.283 259.150,146.309 259.700 C 146.335 260.250,146.378 262.074,146.404 263.754 C 146.431 265.434,146.527 266.855,146.618 266.911 C 146.710 266.968,146.704 267.227,146.605 267.487 C 146.506 267.746,146.486 268.020,146.561 268.094 C 146.683 268.217,146.738 269.667,146.796 274.300 C 146.850 278.709,146.868 280.569,146.883 283.550 C 146.892 285.337,146.953 286.800,147.017 286.800 C 147.081 286.800,147.133 286.935,147.133 287.100 C 147.133 287.265,147.081 287.400,147.017 287.400 C 146.953 287.400,146.916 288.007,146.936 288.750 C 146.956 289.492,147.027 292.125,147.094 294.600 C 147.161 297.075,147.218 299.190,147.221 299.300 C 147.224 299.410,147.190 300.033,147.146 300.685 C 147.101 301.336,147.123 302.146,147.193 302.485 C 147.264 302.823,147.262 303.435,147.189 303.845 C 147.116 304.254,147.124 304.547,147.207 304.496 C 147.348 304.408,147.398 304.768,147.374 305.700 C 147.284 309.103,147.314 311.847,147.441 311.925 C 147.529 311.980,147.510 312.194,147.399 312.401 C 147.206 312.762,147.309 318.091,147.515 318.424 C 147.565 318.506,147.514 318.630,147.400 318.700 C 147.286 318.770,147.247 318.914,147.312 319.020 C 147.378 319.126,147.467 319.682,147.511 320.256 C 147.555 320.830,147.629 321.480,147.675 321.700 C 147.721 321.920,147.873 322.685,148.012 323.400 C 148.151 324.115,148.380 324.880,148.519 325.100 C 148.659 325.320,148.973 326.040,149.216 326.700 C 149.459 327.360,149.780 327.972,149.929 328.060 C 150.078 328.148,150.200 328.316,150.200 328.434 C 150.200 328.552,149.713 328.233,149.118 327.724 C 147.892 326.677,147.883 326.673,147.747 327.150 C 147.691 327.343,147.461 328.154,147.235 328.954 L 146.823 330.408 147.624 331.254 C 149.435 333.168,148.811 335.068,146.963 333.264 L 146.210 332.528 145.916 333.231 C 145.119 335.138,145.091 335.769,145.773 336.472 C 147.093 337.834,146.416 339.861,145.030 338.695 C 144.318 338.096,144.342 338.067,143.605 340.419 L 143.036 342.232 145.068 344.347 C 148.642 348.066,151.539 350.600,152.216 350.600 C 152.630 350.600,153.072 350.842,153.680 351.403 L 154.551 352.206 154.881 349.953 C 155.062 348.714,155.255 347.420,155.309 347.077 C 155.400 346.506,155.367 346.462,154.924 346.547 C 153.884 346.745,153.169 344.979,153.807 343.787 C 154.203 343.046,155.400 343.853,155.400 344.860 C 155.400 345.751,155.607 344.959,155.994 342.590 C 156.498 339.501,156.498 339.400,156.007 339.400 C 155.220 339.400,155.024 337.711,155.728 337.000 C 155.993 336.734,156.069 336.753,156.413 337.172 C 156.647 337.457,156.803 337.536,156.807 337.372 C 156.810 337.222,156.981 336.020,157.186 334.700 C 157.459 332.934,157.498 332.262,157.330 332.158 C 157.166 332.056,157.350 330.781,157.982 327.621 L 158.862 323.225 158.624 315.863 C 158.177 302.075,157.807 284.518,157.802 276.800 C 157.791 261.928,157.061 235.903,155.487 194.300 C 155.101 184.090,155.296 185.161,153.891 185.528 C 153.267 185.690,152.730 185.796,152.698 185.762 C 152.665 185.728,150.398 173.556,147.660 158.714 C 144.922 143.871,142.592 131.697,142.482 131.661 C 142.373 131.624,141.477 132.068,140.492 132.647 M257.332 131.936 C 257.274 132.136,257.044 133.290,256.821 134.500 C 256.597 135.710,254.383 147.720,251.900 161.190 C 249.418 174.659,247.365 185.702,247.338 185.729 C 247.289 185.778,245.783 185.470,245.180 185.289 C 244.808 185.177,244.826 184.883,244.200 201.700 C 242.930 235.784,242.454 253.763,242.196 277.400 C 242.014 294.152,241.893 299.935,241.390 316.200 L 241.164 323.500 242.051 327.768 C 242.773 331.242,242.886 332.056,242.660 332.143 C 242.278 332.290,242.334 332.468,241.622 328.800 C 241.106 326.139,240.488 323.542,240.302 323.252 C 240.285 323.226,238.253 323.336,235.786 323.496 C 217.540 324.682,200.356 325.078,187.500 324.611 C 177.074 324.232,164.530 323.605,160.998 323.286 L 159.696 323.169 159.446 324.035 C 159.132 325.123,157.800 331.746,157.800 332.222 C 157.800 334.204,184.319 337.590,199.900 337.597 C 213.967 337.604,233.522 335.400,240.973 332.968 C 242.300 332.534,242.588 332.611,242.598 333.400 C 242.600 333.565,243.051 338.008,243.601 343.273 C 244.150 348.539,244.600 352.886,244.600 352.935 C 244.600 352.984,244.713 352.967,244.850 352.897 C 244.988 352.827,244.925 352.912,244.712 353.085 C 244.095 353.585,244.561 353.452,245.676 352.810 C 247.789 351.592,252.150 347.738,255.307 344.298 L 257.071 342.376 256.396 340.288 C 255.693 338.113,255.616 337.999,255.191 338.511 C 254.351 339.523,253.600 339.233,253.600 337.896 C 253.600 337.174,253.706 336.949,254.281 336.444 L 254.961 335.846 254.447 334.129 L 253.932 332.412 253.070 333.206 C 252.072 334.126,251.665 334.198,251.400 333.500 C 251.154 332.854,251.392 332.258,252.197 331.500 C 253.247 330.512,253.268 330.378,252.675 328.451 C 252.380 327.488,252.105 326.661,252.065 326.613 C 252.025 326.565,251.636 326.874,251.200 327.300 C 250.764 327.726,250.346 328.012,250.270 327.937 C 250.195 327.862,250.238 327.800,250.367 327.800 C 250.495 327.800,250.600 327.665,250.600 327.500 C 250.600 327.335,250.675 327.200,250.767 327.200 C 250.858 327.200,250.941 327.088,250.951 326.950 C 250.994 326.326,251.212 325.716,251.445 325.568 C 251.585 325.479,251.630 325.405,251.545 325.403 C 251.460 325.401,251.528 325.190,251.696 324.934 C 251.864 324.678,251.947 324.414,251.880 324.347 C 251.814 324.280,251.895 323.793,252.062 323.263 C 252.228 322.733,252.366 322.165,252.367 322.000 C 252.368 321.835,252.437 321.385,252.519 321.000 C 252.602 320.615,252.681 316.788,252.695 312.495 C 252.709 308.203,252.797 304.566,252.891 304.414 C 253.007 304.227,252.987 304.184,252.831 304.281 C 252.704 304.359,252.600 304.328,252.600 304.212 C 252.600 304.095,252.679 304.000,252.775 304.000 C 252.872 304.000,252.911 303.302,252.862 302.450 C 252.731 300.174,252.731 300.281,252.899 295.300 C 252.984 292.770,253.045 290.475,253.035 290.200 C 253.024 289.925,253.019 288.890,253.023 287.900 C 253.039 283.852,253.108 282.087,253.262 281.850 C 253.362 281.695,253.324 281.599,253.162 281.597 C 253.002 281.595,252.978 281.537,253.100 281.447 C 253.322 281.284,253.395 280.180,253.174 280.316 C 253.098 280.363,253.065 280.244,253.102 280.051 C 253.139 279.858,253.178 279.700,253.189 279.700 C 253.200 279.700,253.250 277.045,253.300 273.800 C 253.350 270.555,253.410 267.266,253.433 266.492 C 253.456 265.717,253.412 264.981,253.334 264.855 C 253.257 264.730,253.288 264.569,253.403 264.498 C 253.534 264.417,253.612 263.264,253.612 261.434 C 253.612 259.820,253.648 257.960,253.692 257.300 C 253.830 255.255,253.868 253.202,253.771 253.104 C 253.720 253.053,253.746 252.401,253.829 251.656 C 253.912 250.910,253.987 249.085,253.997 247.600 C 254.006 246.115,254.058 243.730,254.111 242.300 C 254.164 240.870,254.229 238.238,254.254 236.451 C 254.279 234.663,254.345 233.201,254.400 233.200 C 254.455 233.200,254.512 232.457,254.526 231.550 C 254.586 227.739,254.994 220.116,255.310 216.900 C 255.364 216.350,255.446 215.270,255.493 214.500 C 255.539 213.730,255.639 212.290,255.715 211.300 C 255.791 210.310,255.852 209.207,255.850 208.850 C 255.849 208.493,255.924 208.200,256.019 208.200 C 256.113 208.200,256.108 207.984,256.008 207.721 C 255.908 207.457,255.877 207.189,255.941 207.126 C 256.004 207.063,256.079 206.671,256.107 206.256 C 256.204 204.826,256.381 202.697,256.519 201.300 C 256.595 200.530,256.676 199.540,256.698 199.100 C 256.720 198.660,256.797 197.828,256.869 197.250 C 257.054 195.767,257.192 194.489,257.317 193.100 C 257.377 192.440,257.456 191.630,257.493 191.300 C 257.530 190.970,257.620 190.070,257.694 189.300 C 257.768 188.530,257.859 187.585,257.896 187.200 C 257.932 186.815,257.977 186.500,257.995 186.500 C 258.012 186.500,258.060 185.960,258.100 185.300 C 258.141 184.640,258.232 183.560,258.303 182.900 C 258.375 182.240,258.426 181.498,258.419 181.250 C 258.411 181.003,258.485 180.800,258.584 180.800 C 258.683 180.800,258.738 180.350,258.706 179.800 C 258.674 179.250,258.707 178.800,258.780 178.800 C 258.853 178.800,258.920 178.508,258.929 178.150 C 258.944 177.526,259.043 177.009,259.305 176.184 C 259.376 175.960,259.333 175.800,259.202 175.800 C 259.071 175.800,259.042 175.694,259.133 175.550 C 259.348 175.206,259.390 174.923,259.486 173.200 C 259.531 172.375,259.651 171.430,259.752 171.100 C 259.854 170.770,259.915 170.207,259.888 169.850 C 259.862 169.492,259.901 169.161,259.976 169.115 C 260.051 169.069,260.109 168.493,260.106 167.835 C 260.103 167.177,260.164 166.677,260.241 166.726 C 260.319 166.774,260.348 166.540,260.306 166.206 C 260.264 165.873,260.291 165.600,260.367 165.600 C 260.443 165.600,260.518 165.308,260.534 164.950 C 260.566 164.239,260.702 162.906,260.915 161.200 C 260.990 160.595,261.078 159.830,261.109 159.500 C 261.140 159.170,261.182 158.900,261.201 158.900 C 261.221 158.900,261.265 158.585,261.299 158.200 C 261.332 157.815,261.422 157.005,261.498 156.400 C 261.574 155.795,261.661 155.030,261.692 154.700 C 261.723 154.370,261.867 153.695,262.012 153.200 C 262.157 152.705,262.292 152.120,262.313 151.900 C 262.334 151.680,262.415 151.151,262.492 150.725 C 262.569 150.299,262.654 149.759,262.681 149.525 C 262.708 149.291,262.827 148.785,262.947 148.400 C 263.066 148.015,263.165 147.565,263.166 147.400 C 263.168 147.235,263.445 144.985,263.783 142.400 C 264.121 139.815,264.398 137.483,264.399 137.219 C 264.401 136.499,261.455 133.701,259.598 132.660 C 257.606 131.543,257.458 131.495,257.332 131.936 M125.500 158.185 C 122.728 159.213,121.722 160.051,118.600 163.933 C 117.268 165.588,117.218 165.715,117.820 165.906 C 120.322 166.701,128.710 162.365,130.364 159.421 L 130.806 158.635 129.028 158.217 C 126.890 157.715,126.770 157.714,125.500 158.185 M270.800 158.239 C 268.765 158.728,268.901 158.627,269.282 159.365 C 270.604 161.921,277.172 165.651,280.781 165.894 C 282.534 166.012,282.554 165.884,281.073 164.011 C 278.240 160.429,276.842 159.175,274.869 158.448 C 272.830 157.697,273.017 157.706,270.800 158.239 M130.441 162.661 L 127.982 164.300 128.100 170.900 C 128.424 188.989,129.414 276.972,129.345 281.500 C 129.286 285.394,129.134 287.855,128.740 291.300 C 126.201 313.477,127.532 333.021,132.281 343.299 C 135.924 351.186,145.545 358.767,149.408 356.796 C 150.451 356.264,150.439 356.239,148.644 355.244 C 147.405 354.557,145.406 353.207,146.350 353.694 C 146.488 353.765,146.607 353.706,146.615 353.562 C 146.624 353.418,146.664 353.123,146.704 352.907 C 146.744 352.691,146.685 352.402,146.571 352.266 C 146.458 352.129,146.419 351.930,146.485 351.824 C 146.607 351.627,145.843 350.155,145.555 350.033 C 145.469 349.996,145.449 349.883,145.511 349.782 C 145.574 349.680,145.455 349.350,145.248 349.049 C 145.040 348.747,144.754 348.210,144.613 347.855 C 144.471 347.500,144.187 347.016,143.982 346.779 C 143.776 346.542,143.653 346.276,143.707 346.188 C 143.762 346.100,143.725 345.977,143.625 345.915 C 143.525 345.854,143.161 345.217,142.816 344.502 C 142.470 343.786,142.101 343.200,141.994 343.200 C 141.887 343.200,141.800 343.031,141.800 342.824 C 141.800 342.618,141.666 342.338,141.502 342.202 C 141.338 342.066,141.248 341.884,141.301 341.798 C 141.355 341.711,141.148 341.372,140.841 341.044 C 140.535 340.716,140.323 340.332,140.370 340.191 C 140.417 340.050,140.321 339.837,140.157 339.717 C 139.992 339.597,139.794 339.296,139.716 339.049 C 139.637 338.802,139.484 338.600,139.375 338.600 C 139.266 338.600,139.228 338.516,139.292 338.413 C 139.356 338.310,139.227 337.905,139.007 337.513 C 138.787 337.121,138.657 336.800,138.718 336.800 C 138.779 336.800,138.687 336.659,138.514 336.486 C 138.341 336.313,138.200 336.040,138.200 335.879 C 138.200 335.718,138.055 335.364,137.877 335.093 C 137.699 334.822,137.612 334.600,137.682 334.600 C 137.753 334.600,137.671 334.330,137.500 334.000 C 137.329 333.670,137.248 333.400,137.319 333.400 C 137.391 333.400,137.360 333.288,137.252 333.150 C 136.930 332.741,135.758 328.565,135.519 326.977 C 135.460 326.580,135.319 326.014,135.208 325.720 C 135.096 325.427,135.020 325.122,135.039 325.043 C 135.057 324.964,134.972 324.556,134.848 324.135 C 134.725 323.714,134.679 323.227,134.746 323.052 C 134.817 322.866,134.785 322.786,134.668 322.858 C 134.555 322.928,134.485 322.791,134.507 322.541 C 134.528 322.298,134.467 321.947,134.371 321.761 C 134.276 321.574,134.182 321.169,134.162 320.861 C 134.143 320.552,134.058 320.206,133.973 320.091 C 133.888 319.976,133.814 319.706,133.809 319.491 C 133.792 318.858,133.678 318.122,133.545 317.800 C 133.366 317.364,132.613 313.422,132.552 312.600 C 132.523 312.215,132.388 311.781,132.250 311.636 C 132.072 311.447,132.059 311.264,132.205 310.991 C 132.375 310.673,132.352 310.631,132.070 310.739 C 131.825 310.833,131.762 310.788,131.844 310.575 C 131.906 310.413,131.835 310.059,131.685 309.790 C 131.353 309.189,131.328 308.932,131.620 309.112 C 131.775 309.208,131.772 309.122,131.613 308.824 C 131.488 308.591,131.294 308.400,131.181 308.400 C 131.069 308.400,131.032 308.310,131.100 308.200 C 131.168 308.090,131.134 308.000,131.024 308.000 C 130.914 308.000,130.768 308.090,130.700 308.200 C 130.632 308.310,130.677 308.400,130.800 308.400 C 130.923 308.400,130.967 308.492,130.897 308.605 C 130.827 308.718,130.844 308.785,130.935 308.755 C 131.026 308.725,131.123 308.768,131.150 308.850 C 131.178 308.933,131.155 309.000,131.100 309.000 C 131.045 309.000,130.871 309.000,130.712 309.000 C 130.482 309.000,130.440 308.714,130.502 307.550 C 130.544 306.752,130.634 304.840,130.702 303.300 C 130.879 299.239,131.335 293.917,131.926 289.000 L 132.443 284.700 132.320 273.000 C 132.253 266.565,132.154 258.510,132.100 255.100 C 131.824 237.517,131.794 231.111,131.990 231.400 C 132.102 231.565,132.202 231.655,132.212 231.600 C 132.222 231.545,132.261 231.342,132.298 231.149 C 132.335 230.956,132.283 230.849,132.182 230.911 C 131.956 231.051,131.953 231.016,131.921 228.165 C 131.906 226.880,131.962 225.935,132.044 226.065 C 132.127 226.194,132.202 226.255,132.212 226.200 C 132.393 225.189,132.392 225.114,132.204 225.400 C 132.095 225.565,131.993 225.632,131.978 225.550 C 131.888 225.070,131.902 224.409,132.015 223.755 C 132.086 223.346,132.076 223.053,131.993 223.104 C 131.910 223.156,131.791 223.065,131.728 222.902 C 131.663 222.732,131.772 222.522,131.985 222.408 C 132.208 222.289,132.389 221.922,132.440 221.485 C 132.514 220.847,132.493 220.803,132.262 221.118 C 132.016 221.455,132.000 221.451,132.000 221.053 C 132.000 220.819,132.135 220.494,132.300 220.329 C 132.509 220.119,132.569 219.782,132.498 219.214 C 132.434 218.705,132.476 218.400,132.609 218.400 C 132.727 218.400,132.779 218.327,132.724 218.238 C 132.557 217.968,132.421 216.000,132.569 216.000 C 132.776 216.000,132.728 208.345,132.519 208.019 C 132.394 207.825,132.410 207.782,132.569 207.881 C 132.696 207.959,132.800 207.936,132.800 207.828 C 132.800 207.721,132.688 207.588,132.550 207.532 C 132.350 207.452,132.350 207.428,132.550 207.416 C 132.688 207.407,132.800 207.273,132.800 207.117 C 132.800 206.961,132.688 206.788,132.550 206.732 C 132.386 206.666,132.379 206.626,132.529 206.616 C 132.687 206.605,132.709 206.382,132.600 205.899 C 132.513 205.513,132.500 205.162,132.571 205.118 C 132.642 205.074,132.696 203.821,132.692 202.333 C 132.687 200.686,132.758 199.674,132.873 199.745 C 132.985 199.814,132.993 199.751,132.893 199.589 C 132.677 199.239,132.586 198.400,132.764 198.400 C 132.839 198.400,132.900 196.240,132.900 193.600 C 132.900 190.960,132.821 188.800,132.726 188.800 C 132.630 188.800,132.663 188.665,132.800 188.500 C 132.986 188.276,132.989 188.200,132.813 188.200 C 132.682 188.200,132.642 188.095,132.723 187.964 C 132.953 187.590,132.932 179.013,132.700 178.916 C 132.590 178.869,132.613 178.824,132.750 178.816 C 132.888 178.807,133.000 178.665,133.000 178.500 C 133.000 178.335,132.888 178.199,132.750 178.197 C 132.577 178.195,132.589 178.137,132.789 178.011 C 133.021 177.864,133.032 177.730,132.846 177.321 C 132.719 177.043,132.691 176.768,132.783 176.710 C 132.875 176.653,132.939 176.028,132.924 175.322 C 132.909 174.615,132.965 174.079,133.049 174.130 C 133.132 174.182,133.200 174.128,133.200 174.012 C 133.200 173.895,133.129 173.800,133.041 173.800 C 132.848 173.800,132.888 170.343,133.084 170.026 C 133.161 169.901,133.158 169.694,133.077 169.563 C 132.954 169.364,132.906 166.703,133.020 166.400 C 133.110 166.163,133.090 161.001,133.000 161.011 C 132.945 161.017,131.794 161.760,130.441 162.661 M267.090 164.921 C 267.085 166.857,267.146 168.274,267.226 168.071 C 267.330 167.807,267.376 167.914,267.386 168.438 C 267.394 168.844,267.306 169.235,267.190 169.306 C 267.066 169.383,267.033 169.731,267.111 170.168 C 267.296 171.211,267.301 172.675,267.120 172.968 C 267.035 173.105,267.074 173.349,267.207 173.509 C 267.391 173.730,267.392 173.800,267.213 173.800 C 267.080 173.800,267.041 173.905,267.125 174.040 C 267.359 174.419,267.335 187.799,267.100 187.803 C 266.967 187.805,266.967 187.855,267.100 187.953 C 267.224 188.044,267.295 189.882,267.287 192.800 C 267.279 195.385,267.311 197.574,267.357 197.663 C 267.517 197.976,267.543 201.188,267.384 201.090 C 267.297 201.036,267.273 201.241,267.331 201.546 C 267.533 202.606,267.544 203.000,267.372 203.000 C 267.278 203.000,267.201 203.158,267.203 203.350 C 267.206 203.649,267.234 203.656,267.400 203.400 C 267.507 203.235,267.595 203.198,267.597 203.317 C 267.599 203.436,267.537 203.596,267.461 203.672 C 267.269 203.865,267.195 205.027,267.382 204.911 C 267.466 204.859,267.469 205.241,267.389 205.759 C 267.309 206.276,267.284 206.767,267.334 206.850 C 267.520 207.160,267.564 209.000,267.386 209.000 C 267.106 209.000,267.163 209.951,267.450 210.068 C 267.612 210.134,267.630 210.228,267.500 210.335 C 267.284 210.513,267.213 215.799,267.426 215.800 C 267.495 215.800,267.643 216.160,267.754 216.600 C 267.869 217.052,267.880 217.400,267.779 217.400 C 267.680 217.400,267.600 217.495,267.600 217.612 C 267.600 217.728,267.704 217.759,267.831 217.681 C 267.976 217.591,268.007 217.626,267.915 217.776 C 267.556 218.357,267.431 219.176,267.718 219.066 C 267.912 218.991,267.999 219.104,267.997 219.429 C 267.995 219.797,267.953 219.836,267.808 219.606 C 267.705 219.444,267.560 219.374,267.484 219.450 C 267.408 219.525,267.508 219.834,267.705 220.136 C 268.040 220.648,268.074 220.658,268.204 220.293 C 268.286 220.061,268.349 220.391,268.356 221.098 C 268.363 221.807,268.273 222.357,268.134 222.445 C 267.960 222.556,267.964 222.595,268.149 222.597 C 268.320 222.599,268.390 222.943,268.373 223.696 C 268.359 224.298,268.292 224.757,268.224 224.715 C 268.156 224.672,268.119 226.539,268.143 228.862 C 268.174 231.994,268.123 233.125,267.943 233.240 C 267.762 233.354,267.772 233.395,267.979 233.397 C 268.215 233.400,268.238 234.535,268.129 240.750 C 268.058 244.793,267.901 256.290,267.781 266.300 L 267.561 284.500 268.075 288.800 C 268.710 294.112,269.151 299.353,269.373 304.200 C 269.585 308.827,269.584 308.836,269.257 308.564 C 268.876 308.248,268.436 308.700,268.279 309.570 C 268.207 309.972,268.078 310.390,267.992 310.500 C 267.781 310.772,267.380 313.006,267.506 313.209 C 267.561 313.299,267.519 313.426,267.413 313.492 C 267.306 313.558,267.158 314.148,267.084 314.802 C 267.010 315.457,266.889 315.955,266.815 315.909 C 266.693 315.834,266.648 316.077,266.587 317.150 C 266.575 317.343,266.519 317.635,266.461 317.800 C 266.402 317.965,266.331 318.415,266.302 318.800 C 266.273 319.185,266.135 319.905,265.995 320.400 C 265.855 320.895,265.713 321.515,265.681 321.778 C 265.648 322.041,265.559 322.401,265.483 322.578 C 265.407 322.755,265.318 323.035,265.286 323.200 C 265.148 323.914,264.957 325.120,264.946 325.350 C 264.939 325.488,264.869 325.600,264.790 325.600 C 264.711 325.600,264.663 325.893,264.682 326.250 C 264.702 326.608,264.602 327.125,264.460 327.400 C 264.318 327.675,264.202 328.148,264.201 328.450 C 264.201 328.753,264.106 329.000,263.991 329.000 C 263.876 329.000,263.797 329.113,263.815 329.250 C 263.897 329.880,263.783 330.613,263.619 330.512 C 263.519 330.450,263.482 330.570,263.537 330.779 C 263.591 330.988,263.519 331.371,263.375 331.630 C 263.232 331.888,263.134 332.168,263.158 332.250 C 263.181 332.332,263.105 332.400,262.988 332.400 C 262.872 332.400,262.827 332.482,262.890 332.583 C 262.952 332.684,262.897 333.021,262.768 333.333 C 262.639 333.645,262.515 333.968,262.492 334.050 C 262.469 334.132,262.432 334.223,262.410 334.250 C 262.388 334.278,262.330 334.522,262.280 334.793 C 262.230 335.065,262.050 335.500,261.879 335.761 C 261.708 336.021,261.615 336.281,261.672 336.339 C 261.729 336.396,261.692 336.546,261.589 336.671 C 261.241 337.095,259.414 340.800,259.552 340.800 C 259.627 340.800,259.500 340.932,259.269 341.094 C 259.039 341.256,258.658 341.796,258.424 342.294 C 258.190 342.792,257.908 343.200,257.799 343.200 C 257.690 343.200,257.600 343.295,257.600 343.412 C 257.600 343.528,257.713 343.567,257.850 343.497 C 257.988 343.427,257.925 343.512,257.712 343.685 C 257.498 343.858,257.389 344.000,257.469 344.000 C 257.549 344.000,257.502 344.203,257.365 344.450 C 257.227 344.697,257.138 344.979,257.166 345.075 C 257.194 345.171,257.073 345.194,256.898 345.127 C 256.723 345.060,256.626 345.081,256.684 345.173 C 256.741 345.266,256.398 346.118,255.922 347.066 C 255.447 348.015,255.104 348.838,255.162 348.895 C 255.220 348.953,255.117 349.000,254.933 349.000 C 254.733 349.000,254.600 349.160,254.600 349.400 C 254.600 349.620,254.505 349.800,254.388 349.800 C 254.272 349.800,254.232 349.890,254.300 350.000 C 254.368 350.110,254.328 350.200,254.212 350.200 C 254.095 350.200,254.000 350.335,254.000 350.500 C 254.000 350.665,253.925 350.800,253.833 350.800 C 253.742 350.800,253.652 350.935,253.633 351.100 C 253.615 351.265,253.585 351.535,253.567 351.700 C 253.548 351.865,253.464 352.000,253.379 352.000 C 253.294 352.000,253.253 352.248,253.289 352.550 C 253.325 352.853,253.365 353.263,253.377 353.462 C 253.391 353.683,253.497 353.773,253.650 353.694 C 254.594 353.207,252.595 354.557,251.356 355.244 C 249.544 356.248,249.547 356.242,250.663 356.782 C 255.260 359.007,265.361 350.016,268.873 340.573 C 272.836 329.916,273.596 312.015,271.063 288.934 L 270.519 283.967 271.164 230.434 C 271.519 200.990,271.859 174.110,271.920 170.700 L 272.029 164.500 269.692 163.000 C 268.406 162.175,267.297 161.478,267.227 161.450 C 267.157 161.423,267.096 162.984,267.090 164.921 M193.800 180.205 C 184.517 180.639,174.434 181.669,166.300 183.015 C 163.940 183.405,155.745 184.998,155.653 185.084 C 155.627 185.108,155.693 187.011,155.799 189.314 C 156.047 194.673,156.713 212.021,157.096 223.100 C 157.928 247.155,158.184 257.714,158.401 277.100 C 158.505 286.340,158.680 297.185,158.791 301.200 C 159.183 315.388,159.435 322.302,159.567 322.437 C 160.020 322.904,189.740 324.200,200.000 324.199 C 208.954 324.199,240.082 322.916,240.533 322.528 C 240.581 322.487,240.973 310.643,241.206 302.200 C 241.317 298.185,241.492 286.980,241.595 277.300 C 241.698 267.620,241.834 258.215,241.897 256.400 C 241.960 254.585,242.146 248.060,242.311 241.900 C 242.610 230.760,243.282 210.937,243.935 194.055 C 244.123 189.190,244.227 185.160,244.166 185.099 C 243.990 184.923,235.433 183.274,231.800 182.715 C 218.935 180.738,203.800 179.738,193.800 180.205 M132.184 224.250 C 132.125 224.680,132.155 224.925,132.256 224.824 C 132.352 224.728,132.399 224.390,132.360 224.074 C 132.294 223.546,132.280 223.560,132.184 224.250 M244.624 337.601 C 244.805 338.204,244.808 338.524,244.636 338.901 C 244.350 339.530,243.689 339.559,243.526 338.950 C 243.064 337.224,244.121 335.924,244.624 337.601 M246.086 343.714 C 246.911 344.540,246.189 346.712,245.138 346.562 C 244.489 346.470,244.400 344.709,245.005 343.939 C 245.495 343.316,245.654 343.283,246.086 343.714 M247.400 351.223 C 246.569 351.943,245.600 352.484,245.600 352.228 C 245.600 351.872,247.209 350.600,247.651 350.608 C 248.063 350.616,248.043 350.666,247.400 351.223 M211.335 359.132 C 211.263 359.204,206.095 359.271,199.852 359.282 C 189.867 359.298,188.509 359.336,188.575 359.600 C 188.617 359.765,188.654 360.013,188.659 360.150 C 188.663 360.288,188.743 360.400,188.837 360.400 C 188.931 360.400,188.951 360.625,188.882 360.900 L 188.757 361.400 200.002 361.400 C 211.056 361.400,211.245 361.393,211.145 361.010 C 211.088 360.795,211.114 360.592,211.202 360.560 C 211.290 360.527,211.393 360.230,211.430 359.900 C 211.468 359.570,211.589 359.234,211.699 359.153 C 211.830 359.057,211.824 359.005,211.683 359.003 C 211.564 359.001,211.407 359.059,211.335 359.132 "
       stroke="none"
       fill="#ea2e31"
       fill-rule="evenodd" />
  </g>
</svg>
